M48
; DRILL file KiCad 10.0.6 date 2026-09-23T11:58:39
; FORMAT={-:-/ absolute / metric / decimal}
; #@! TF.CreationDate,2026-09-23T11:58:39+09:00
; #@! TF.GenerationSoftware,Kicad,Pcbnew,10.0.6
; #@! TF.FileFunction,Plated,1,4,PTH
FMAT,2
METRIC
; #@! TA.AperFunction,Plated,PTH,ViaDrill
T1C0.300
; #@! TA.AperFunction,Plated,PTH,ViaDrill
T2C0.400
; #@! TA.AperFunction,Plated,PTH,ViaDrill
T3C0.600
; #@! TA.AperFunction,Plated,PTH,ComponentDrill
T4C0.600
; #@! TA.AperFunction,Plated,PTH,ComponentDrill
T5C0.800
; #@! TA.AperFunction,Plated,PTH,ComponentDrill
T6C0.900
; #@! TA.AperFunction,Plated,PTH,ComponentDrill
T7C1.000
%
G90
G05
T1
X-53.25Y61.35
X-53.25Y40.6
X-53.2Y56.8
X-53.15Y44.3
X-53.05Y37.35
X-53.05Y28.45
X-53.05Y25.75
X-53.0Y34.65
X-52.95Y58.7
X-52.95Y31.5
X-52.9Y64.05
X-52.85Y23.3
X-51.08Y44.4
X-51.0Y63.0
X-51.0Y60.0
X-51.0Y57.0
X-51.0Y42.0
X-51.0Y39.0
X-51.0Y36.0
X-51.0Y33.0
X-51.0Y30.0
X-51.0Y27.0
X-51.0Y24.0
X-48.0Y63.0
X-48.0Y57.0
X-48.0Y42.0
X-48.0Y39.0
X-48.0Y36.0
X-48.0Y33.0
X-48.0Y30.0
X-48.0Y27.0
X-48.0Y24.0
X-47.97Y44.43
X-47.84Y61.78
X-46.54Y59.62
X-45.8Y56.9
X-45.8Y44.6
X-45.7Y42.4
X-45.0Y30.0
X-45.0Y27.0
X-45.0Y24.0
X-44.11Y21.35
X-43.9Y17.03
X-43.4Y60.2
X-42.98Y12.31
X-42.74Y13.73
X-41.84Y14.66
X-41.65Y26.36
X-41.52Y23.3
X-40.62Y21.04
X-40.56Y29.47
X-39.64Y12.69
X-39.0Y24.0
X-38.75Y21.04
X-38.62Y38.6
X-37.72Y36.58
X-37.66Y37.5
X-37.6Y62.9
X-37.0Y17.67
X-36.11Y38.74
X-35.47Y13.41
X-35.2Y34.33
X-35.09Y35.42
X-35.01Y28.14
X-34.96Y31.3
X-34.3Y63.0
X-34.21Y12.43
X-33.57Y21.3
X-33.54Y22.8
X-33.36Y16.97
X-33.29Y13.39
X-33.16Y12.46
X-33.0Y18.0
X-32.77Y24.22
X-32.74Y25.34
X-32.22Y13.37
X-32.19Y12.55
X-32.1Y58.0
X-32.0Y55.0
X-32.0Y52.0
X-32.0Y49.2
X-32.0Y43.4
X-31.9Y46.3
X-31.21Y12.52
X-31.04Y35.34
X-31.01Y16.21
X-30.26Y12.51
X-30.0Y59.8
X-30.0Y57.0
X-30.0Y54.0
X-30.0Y51.0
X-30.0Y48.0
X-30.0Y45.0
X-30.0Y33.0
X-30.0Y30.0
X-30.0Y24.0
X-30.0Y18.0
X-29.9Y43.0
X-29.52Y16.17
X-29.38Y12.47
X-28.22Y12.19
X-28.03Y33.85
X-27.32Y31.23
X-27.29Y12.17
X-27.1Y59.9
X-27.0Y57.0
X-27.0Y54.0
X-27.0Y51.0
X-27.0Y48.0
X-27.0Y45.0
X-27.0Y24.0
X-27.0Y18.0
X-26.34Y12.18
X-26.14Y32.44
X-25.4Y62.3
X-25.09Y42.25
X-24.79Y25.55
X-24.5Y11.89
X-24.3Y34.0
X-24.133Y65.45
X-24.1Y60.0
X-24.04Y15.59
X-24.0Y57.0
X-24.0Y54.0
X-24.0Y51.0
X-24.0Y48.0
X-24.0Y45.0
X-24.0Y33.0
X-24.0Y24.0
X-24.0Y21.0
X-24.0Y18.0
X-23.85Y25.55
X-23.65Y62.0
X-23.49Y11.89
X-22.98Y15.57
X-22.86Y25.55
X-22.79Y31.83
X-22.5Y32.74
X-22.25Y31.13
X-21.86Y15.56
X-21.68Y32.5
X-21.61Y23.01
X-21.6Y10.5
X-21.52Y20.83
X-21.35Y25.55
X-21.35Y18.23
X-21.24Y34.54
X-21.05Y39.04
X-21.05Y37.33
X-21.033Y42.687
X-21.0Y60.0
X-21.0Y57.0
X-21.0Y54.0
X-21.0Y51.0
X-21.0Y48.0
X-20.89Y32.83
X-20.656Y43.449
X-20.1Y32.44
X-19.883Y65.45
X-19.55Y44.08
X-19.49Y45.21
X-19.08Y41.57
X-19.08Y30.33
X-18.9Y56.6
X-18.8Y11.01
X-18.77Y37.3
X-18.285Y57.982
X-18.285Y51.0
X-18.26Y45.86
X-18.0Y33.0
X-18.0Y30.0
X-17.9Y61.4
X-17.74Y38.82
X-17.65Y25.97
X-17.11Y46.101
X-16.56Y44.68
X-16.55Y41.72
X-16.25Y63.9
X-16.06Y24.2
X-16.02Y39.64
X-15.9Y53.8
X-15.86Y32.92
X-15.525Y26.421
X-15.365Y22.985
X-15.36Y46.52
X-15.33Y48.38
X-15.19Y50.08
X-15.01Y40.76
X-14.74Y36.41
X-14.59Y10.7
X-14.39Y55.34
X-14.155Y25.7
X-14.155Y23.436
X-14.135Y26.78
X-14.03Y39.74
X-13.7Y62.1
X-13.68Y51.37
X-13.671Y37.95
X-13.33Y44.98
X-13.23Y48.78
X-13.2Y47.21
X-13.03Y43.99
X-13.01Y19.95
X-12.96Y22.38
X-12.79Y42.31
X-12.76Y52.37
X-12.725Y43.179
X-12.5Y10.92
X-12.33Y32.61
X-12.32Y40.94
X-12.31Y18.82
X-12.05Y43.77
X-12.0Y57.0
X-12.0Y48.0
X-12.0Y21.0
X-11.778Y46.158
X-11.7Y53.47
X-11.67Y50.47
X-11.24Y22.62
X-10.9Y20.2
X-10.7Y64.05
X-10.5Y10.9
X-10.11Y52.02
X-10.09Y55.04
X-9.756Y20.966
X-9.2Y33.98
X-9.13Y22.55
X-9.01Y38.37
X-9.0Y51.0
X-8.7Y58.1
X-8.13Y53.78
X-8.1Y61.0
X-7.9Y21.75
X-7.49Y10.62
X-7.25Y64.4
X-6.679Y22.099
X-6.54Y58.75
X-6.449Y34.211
X-6.39Y41.88
X-6.3Y54.8
X-6.282Y35.972
X-6.155Y42.87
X-6.0Y39.0
X-5.88Y33.58
X-5.61Y59.67
X-5.55Y11.37
X-5.4Y64.3
X-5.27Y61.76
X-4.87Y57.33
X-4.68Y30.66
X-4.5Y54.7
X-4.395Y23.407
X-4.36Y33.29
X-4.33Y60.35
X-4.08Y58.1
X-3.9Y62.9
X-3.87Y29.55
X-3.45Y39.83
X-3.1Y36.09
X-2.77Y22.03
X-2.69Y11.37
X-2.62Y60.35
X-2.21Y58.4
X-1.71Y43.63
X-1.35Y39.7
X-1.13Y60.38
X-1.0Y52.0
X-0.56Y30.53
X-0.5Y55.6
X-0.28Y40.275
X-0.26Y33.43
X-0.18Y58.43
X0.0Y63.0
X0.06Y49.745
X0.379Y52.13
X0.45Y12.73
X0.5Y60.39
X0.58Y28.68
X1.05Y48.83
X1.06Y39.64
X1.5Y64.8
X1.56Y58.43
X1.63Y10.78
X1.65Y36.04
X2.17Y60.39
X2.54Y19.1
X2.675Y55.825
X3.0Y63.0
X3.32Y58.45
X3.43Y60.35
X3.47Y28.64
X3.57Y61.19
X3.57Y19.775
X3.6Y21.601
X3.75Y55.01
X3.86Y18.04
X4.17Y33.43
X4.44Y39.52
X4.61Y51.53
X4.64Y22.25
X5.03Y42.52
X5.22Y58.465
X5.55Y60.345
X5.61Y21.31
X5.824Y52.15
X6.04Y36.26
X6.1Y62.8
X6.11Y14.02
X6.195Y42.47
X6.774Y51.675
X6.86Y12.33
X6.93Y58.51
X7.29Y60.365
X7.779Y51.653
X7.8Y33.29
X7.87Y39.52
X7.93Y22.44
X8.25Y64.4
X8.25Y54.7
X8.45Y41.17
X8.47Y18.58
X8.5Y52.5
X8.59Y47.963
X8.91Y60.365
X9.0Y21.0
X9.05Y58.49
X9.56Y19.17
X9.662Y50.277
X10.18Y11.41
X10.35Y60.365
X10.96Y58.46
X11.04Y48.92
X11.17Y46.43
X11.25Y49.73
X11.57Y18.07
X11.76Y60.365
X12.219Y49.72
X12.245Y51.245
X12.364Y52.087
X12.55Y22.61
X12.81Y58.44
X13.2Y11.69
X13.46Y60.43
X13.963Y35.833
X13.98Y52.1
X14.09Y46.72
X14.11Y12.66
X14.12Y57.63
X14.457Y44.864
X14.868Y53.868
X14.87Y41.94
X14.95Y59.75
X15.32Y46.9
X15.33Y56.15
X15.33Y45.65
X15.365Y20.29
X15.47Y37.63
X15.65Y51.8
X15.81Y21.85
X16.03Y17.26
X16.06Y58.65
X16.68Y39.06
X16.72Y24.22
X16.83Y32.57
X16.85Y28.57
X17.13Y57.73
X17.22Y55.5
X17.236Y46.855
X17.57Y10.85
X17.72Y37.96
X17.77Y23.21
X17.8Y49.5
X17.888Y45.557
X18.4Y54.1
X18.4Y39.39
X18.43Y57.68
X18.805Y26.64
X19.04Y55.56
X19.075Y23.47
X19.135Y43.2
X19.48Y11.02
X19.5Y58.72
X19.8Y44.42
X20.185Y42.058
X20.27Y19.79
X20.44Y57.59
X20.54Y55.58
X21.0Y51.0
X21.33Y43.14
X21.35Y11.02
X21.48Y47.56
X21.66Y44.24
X21.77Y57.55
X21.9Y38.6
X22.0Y35.3
X22.0Y25.4
X22.02Y55.56
X22.1Y31.5
X22.1Y28.3
X23.3Y54.0
X23.37Y57.57
X23.505Y11.278
X24.0Y55.63
X24.0Y48.0
X24.0Y33.0
X24.0Y30.0
X24.0Y27.0
X24.0Y24.0
X24.0Y21.0
X24.0Y18.0
X24.0Y15.0
X24.3Y51.1
X25.16Y57.56
X25.71Y55.65
X27.0Y48.0
X27.0Y33.0
X27.0Y30.0
X27.0Y27.0
X27.0Y24.0
X27.0Y21.0
X27.0Y12.0
X27.13Y55.62
X27.17Y57.56
X28.05Y50.39
X28.4Y55.58
X29.04Y57.55
X29.82Y55.59
X30.0Y48.0
X30.0Y36.0
X30.0Y33.0
X30.0Y30.0
X30.0Y27.0
X30.0Y24.0
X30.0Y21.0
X30.0Y12.0
X30.78Y57.55
X31.1Y55.51
X31.51Y50.23
X32.16Y55.53
X32.48Y57.56
X33.0Y48.0
X33.0Y45.0
X33.0Y39.0
X33.0Y36.0
X33.0Y33.0
X33.0Y30.0
X33.0Y27.0
X33.0Y24.0
X33.0Y21.0
X33.0Y18.0
X33.0Y15.0
X33.0Y12.0
X33.15Y55.55
X33.8Y53.9
X34.07Y57.55
X34.42Y55.6
X35.1Y51.3
X35.53Y57.57
X35.67Y55.5
X36.0Y39.0
X36.0Y36.0
X36.0Y33.0
X36.0Y30.0
X36.0Y27.0
X36.0Y24.0
X36.0Y21.0
X36.0Y18.0
X36.0Y15.0
X36.0Y12.0
X36.59Y54.98
X36.6Y58.1
X36.8Y53.7
X38.6Y56.49
X38.89Y58.5
X39.0Y39.0
X39.0Y36.0
X39.0Y33.0
X39.0Y30.0
X39.0Y27.0
X39.0Y24.0
X39.0Y21.0
X39.0Y18.0
X39.0Y15.0
X39.0Y12.0
X39.4Y56.48
X39.55Y50.63
X42.0Y48.0
X42.0Y45.0
X42.0Y39.0
X42.0Y36.0
X42.0Y33.0
X42.0Y30.0
X42.0Y27.0
X42.0Y24.0
X42.0Y21.0
X42.0Y18.0
X42.0Y15.0
X42.0Y12.0
X42.498Y57.265
X43.14Y55.786
X43.17Y53.67
X43.31Y60.56
X43.8Y58.2
X44.2Y57.0
X45.52Y54.72
X45.61Y58.95
T2
X-35.43Y37.11
X-22.01Y11.33
X-20.54Y10.5
X-16.28Y31.27
X-14.54Y33.89
X-9.29Y49.782
X0.0Y50.94
X9.9Y52.25
X23.8Y37.01
X32.2Y37.0
T3
X-37.81Y26.5
X-21.39Y45.5
X-17.53Y28.09
X-12.81Y54.16
X-4.45Y56.25
X36.84Y63.37
X36.99Y49.5
X37.51Y51.41
X37.64Y59.06
X38.1Y63.37
X39.39Y54.5
X39.44Y63.45
X39.55Y53.06
X39.97Y48.06
X40.02Y39.19
X40.06Y61.27
X40.58Y43.92
X40.59Y45.04
X40.62Y46.38
X41.6Y40.57
X41.62Y42.43
X42.94Y49.25
T5
X23.5Y44.1
X23.5Y41.56
X26.04Y44.1
X26.04Y41.56
X28.58Y44.1
X28.58Y41.56
X31.12Y44.1
X31.12Y41.56
T6
X-46.49Y40.78
X-43.95Y40.78
X-41.6Y61.3
X-41.41Y40.78
X-39.06Y61.3
X-38.87Y40.78
X-36.52Y61.3
X-36.33Y40.78
X-33.98Y61.3
X-33.79Y40.78
X-31.44Y61.3
X-31.25Y40.78
X-28.97Y61.3
X-28.71Y40.78
X-26.13Y40.78
T7
X-15.54Y60.5
X-13.0Y60.5
X-10.46Y60.5
X-10.44Y47.42
X-10.44Y44.88
X-10.44Y42.34
X-10.44Y39.8
X-10.44Y37.26
X-10.44Y34.72
X-10.44Y32.18
X-10.44Y29.64
X-10.44Y27.1
X-10.44Y24.56
X-7.9Y47.42
X-7.9Y44.88
X-7.9Y42.34
X-7.9Y39.8
X-7.9Y37.26
X-7.9Y34.72
X-7.9Y32.18
X-7.9Y29.64
X-7.9Y27.1
X-7.9Y24.56
X-5.36Y47.42
X-5.36Y44.88
X-5.36Y27.1
X-5.36Y24.56
X-2.82Y47.42
X-2.82Y44.88
X-2.82Y27.1
X-2.82Y24.56
X-0.28Y47.42
X-0.28Y44.88
X-0.28Y27.1
X-0.28Y24.56
X2.26Y47.42
X2.26Y44.88
X2.26Y27.1
X2.26Y24.56
X4.8Y47.42
X4.8Y44.88
X4.8Y27.1
X4.8Y24.56
X7.34Y47.42
X7.34Y44.88
X7.34Y27.1
X7.34Y24.56
X9.88Y47.42
X9.88Y44.88
X9.88Y42.34
X9.88Y39.8
X9.88Y37.26
X9.88Y34.72
X9.88Y32.18
X9.88Y29.64
X9.88Y27.1
X9.88Y24.56
X12.42Y47.42
X12.42Y44.88
X12.42Y42.34
X12.42Y39.8
X12.42Y37.26
X12.42Y34.72
X12.42Y32.18
X12.42Y29.64
X12.42Y27.1
X12.42Y24.56
T4
G00X41.32Y61.32
M15
G01X42.42Y61.32
M16
G05
G00X41.32Y52.68
M15
G01X42.42Y52.68
M16
G05
G00X45.75Y61.32
M15
G01X46.35Y61.32
M16
G05
G00X45.75Y52.68
M15
G01X46.35Y52.68
M16
G05
M30
