%TF.GenerationSoftware,KiCad,Pcbnew,10.0.6*%
%TF.CreationDate,2026-09-23T09:43:18+09:00*%
%TF.ProjectId,MSX_PicoVerse_2350_1.4,4d53585f-5069-4636-9f56-657273655f32,1.2*%
%TF.SameCoordinates,Original*%
%TF.FileFunction,Soldermask,Top*%
%TF.FilePolarity,Negative*%
%FSLAX46Y46*%
G04 Gerber Fmt 4.6, Leading zero omitted, Abs format (unit mm)*
G04 Created by KiCad (PCBNEW 10.0.6) date 2026-09-23 09:43:18*
%MOMM*%
%LPD*%
G01*
G04 APERTURE LIST*
G04 Aperture macros list*
%AMRoundRect*
0 Rectangle with rounded corners*
0 $1 Rounding radius*
0 $2 $3 $4 $5 $6 $7 $8 $9 X,Y pos of 4 corners*
0 Add a 4 corners polygon primitive as box body*
4,1,4,$2,$3,$4,$5,$6,$7,$8,$9,$2,$3,0*
0 Add four circle primitives for the rounded corners*
1,1,$1+$1,$2,$3*
1,1,$1+$1,$4,$5*
1,1,$1+$1,$6,$7*
1,1,$1+$1,$8,$9*
0 Add four rect primitives between the rounded corners*
20,1,$1+$1,$2,$3,$4,$5,0*
20,1,$1+$1,$4,$5,$6,$7,0*
20,1,$1+$1,$6,$7,$8,$9,0*
20,1,$1+$1,$8,$9,$2,$3,0*%
%AMFreePoly0*
4,1,7,0.525000,-0.350000,0.125000,-0.350000,0.125000,-0.950000,-0.525000,-0.950000,-0.525000,0.350000,0.525000,0.350000,0.525000,-0.350000,0.525000,-0.350000,$1*%
%AMFreePoly1*
4,1,7,0.525000,-0.950000,-0.125000,-0.950000,-0.125000,-0.350000,-0.525000,-0.350000,-0.525000,0.350000,0.525000,0.350000,0.525000,-0.950000,0.525000,-0.950000,$1*%
G04 Aperture macros list end*
%ADD10C,0.100000*%
%ADD11RoundRect,0.203000X-0.812000X1.447000X-0.812000X-1.447000X0.812000X-1.447000X0.812000X1.447000X0*%
%ADD12RoundRect,0.040000X0.360000X-0.360000X0.360000X0.360000X-0.360000X0.360000X-0.360000X-0.360000X0*%
%ADD13RoundRect,0.035000X-0.465000X0.315000X-0.465000X-0.315000X0.465000X-0.315000X0.465000X0.315000X0*%
%ADD14RoundRect,0.040000X-0.360000X-0.360000X0.360000X-0.360000X0.360000X0.360000X-0.360000X0.360000X0*%
%ADD15RoundRect,0.060000X-0.540000X-0.590000X0.540000X-0.590000X0.540000X0.590000X-0.540000X0.590000X0*%
%ADD16C,4.300000*%
%ADD17RoundRect,0.040000X0.360000X0.360000X-0.360000X0.360000X-0.360000X-0.360000X0.360000X-0.360000X0*%
%ADD18RoundRect,0.060000X-0.590000X0.540000X-0.590000X-0.540000X0.590000X-0.540000X0.590000X0.540000X0*%
%ADD19R,2.400000X2.400000*%
%ADD20RoundRect,0.040000X-0.360000X0.360000X-0.360000X-0.360000X0.360000X-0.360000X0.360000X0.360000X0*%
%ADD21C,0.650000*%
%ADD22RoundRect,0.150000X0.575000X-0.150000X0.575000X0.150000X-0.575000X0.150000X-0.575000X-0.150000X0*%
%ADD23RoundRect,0.075000X0.650000X-0.075000X0.650000X0.075000X-0.650000X0.075000X-0.650000X-0.075000X0*%
%ADD24O,2.100000X1.000000*%
%ADD25O,1.600000X1.000000*%
%ADD26RoundRect,0.027500X0.247500X0.522500X-0.247500X0.522500X-0.247500X-0.522500X0.247500X-0.522500X0*%
%ADD27RoundRect,0.189100X-0.787500X-1.262500X0.787500X-1.262500X0.787500X1.262500X-0.787500X1.262500X0*%
%ADD28RoundRect,0.250000X-0.500000X-0.500000X0.500000X-0.500000X0.500000X0.500000X-0.500000X0.500000X0*%
%ADD29C,1.500000*%
%ADD30C,1.600000*%
%ADD31R,1.600000X1.300000*%
%ADD32C,1.000000*%
%ADD33R,0.700000X1.600000*%
%ADD34R,1.200000X1.400000*%
%ADD35R,1.200000X2.200000*%
%ADD36R,1.600000X1.400000*%
%ADD37R,1.600000X2.700000*%
%ADD38RoundRect,0.060000X0.590000X-0.540000X0.590000X0.540000X-0.590000X0.540000X-0.590000X-0.540000X0*%
%ADD39R,1.700000X1.700000*%
%ADD40C,1.700000*%
%ADD41RoundRect,0.030000X-0.470000X-0.270000X0.470000X-0.270000X0.470000X0.270000X-0.470000X0.270000X0*%
%ADD42RoundRect,0.100000X0.400000X0.600000X-0.400000X0.600000X-0.400000X-0.600000X0.400000X-0.600000X0*%
%ADD43C,0.750000*%
%ADD44RoundRect,0.090000X-0.210000X-0.510000X0.210000X-0.510000X0.210000X0.510000X-0.210000X0.510000X0*%
%ADD45FreePoly0,0.000000*%
%ADD46FreePoly1,0.000000*%
%ADD47R,1.200000X1.300000*%
%ADD48RoundRect,0.425000X-0.425000X-3.675000X0.425000X-3.675000X0.425000X3.675000X-0.425000X3.675000X0*%
%ADD49RoundRect,0.425000X-0.425000X-3.175000X0.425000X-3.175000X0.425000X3.175000X-0.425000X3.175000X0*%
G04 APERTURE END LIST*
%TO.C,J11*%
D10*
X-32720000Y9000000D02*
X32720000Y9000000D01*
X32720000Y0D01*
X-32720000Y0D01*
X-32720000Y9000000D01*
G36*
X-32720000Y9000000D02*
G01*
X32720000Y9000000D01*
X32720000Y0D01*
X-32720000Y0D01*
X-32720000Y9000000D01*
G37*
%TD*%
D11*
%TO.C,F1*%
X27000000Y52690000D03*
X31320000Y52690000D03*
%TD*%
D12*
%TO.C,R32*%
X-15590000Y16238000D03*
X-15590000Y17762000D03*
%TD*%
D13*
%TO.C,IC1*%
X-36200000Y30030000D03*
X-36200000Y29080000D03*
X-36200000Y28130000D03*
X-34000000Y28130000D03*
X-34000000Y29080000D03*
X-34000000Y30030000D03*
%TD*%
D12*
%TO.C,R31*%
X-15560000Y12428000D03*
X-15560000Y13952000D03*
%TD*%
%TO.C,R48*%
X-7850000Y49748000D03*
X-7850000Y51272000D03*
%TD*%
D14*
%TO.C,R53*%
X-40452000Y35540000D03*
X-38928000Y35540000D03*
%TD*%
%TO.C,R57*%
X-46434000Y34060000D03*
X-44910000Y34060000D03*
%TD*%
D15*
%TO.C,C6*%
X-36226000Y24470000D03*
X-34194000Y24470000D03*
%TD*%
D12*
%TO.C,R51*%
X-4910000Y49728000D03*
X-4910000Y51252000D03*
%TD*%
D16*
%TO.C,PAD01*%
X-28150000Y21200000D03*
%TD*%
D17*
%TO.C,C8*%
X-32518000Y32630000D03*
X-34042000Y32630000D03*
%TD*%
D12*
%TO.C,R9*%
X29080000Y37038000D03*
X29080000Y38562000D03*
%TD*%
%TO.C,R26*%
X11580000Y12438000D03*
X11580000Y13962000D03*
%TD*%
D18*
%TO.C,C11*%
X-22850000Y29086000D03*
X-22850000Y27054000D03*
%TD*%
D12*
%TO.C,R38*%
X21480000Y12438000D03*
X21480000Y13962000D03*
%TD*%
D19*
%TO.C,TVS1*%
X-22880000Y13710000D03*
X-27280000Y13710000D03*
%TD*%
D20*
%TO.C,C9*%
X-36440000Y33122000D03*
X-36440000Y31598000D03*
%TD*%
D21*
%TO.C,J5*%
X42400000Y54110000D03*
X42400000Y59890000D03*
D22*
X40955000Y53750000D03*
X40955000Y54550000D03*
D23*
X40955000Y55750000D03*
X40955000Y56750000D03*
X40955000Y57250000D03*
X40955000Y58250000D03*
D22*
X40955000Y59450000D03*
X40955000Y60250000D03*
X40955000Y60250000D03*
X40955000Y59450000D03*
D23*
X40955000Y58750000D03*
X40955000Y57750000D03*
X40955000Y56250000D03*
X40955000Y55250000D03*
D22*
X40955000Y54550000D03*
X40955000Y53750000D03*
D24*
X41870000Y52680000D03*
D25*
X46050000Y52680000D03*
D24*
X41870000Y61320000D03*
D25*
X46050000Y61320000D03*
%TD*%
D14*
%TO.C,C5*%
X-36252000Y22750000D03*
X-34728000Y22750000D03*
%TD*%
D20*
%TO.C,R2*%
X-40600000Y19814000D03*
X-40600000Y18290000D03*
%TD*%
D26*
%TO.C,Q1*%
X-38700000Y16582000D03*
X-39650000Y16582000D03*
X-40600000Y16582000D03*
X-40600000Y13782000D03*
X-39650000Y13782000D03*
X-38700000Y13782000D03*
%TD*%
D12*
%TO.C,R33*%
X-17690000Y12438000D03*
X-17690000Y13962000D03*
%TD*%
%TO.C,R11*%
X-4120000Y12438000D03*
X-4120000Y13962000D03*
%TD*%
%TO.C,R3*%
X19070000Y16238000D03*
X19070000Y17762000D03*
%TD*%
D14*
%TO.C,R44*%
X-46462000Y61100000D03*
X-44938000Y61100000D03*
%TD*%
D20*
%TO.C,C27*%
X37640000Y61922000D03*
X37640000Y60398000D03*
%TD*%
D12*
%TO.C,R35*%
X15900000Y12548000D03*
X15900000Y14072000D03*
%TD*%
D20*
%TO.C,R8*%
X25350000Y38612000D03*
X25350000Y37088000D03*
%TD*%
%TO.C,C3*%
X-29480000Y15062000D03*
X-29480000Y13538000D03*
%TD*%
%TO.C,R6*%
X-37920000Y33122000D03*
X-37920000Y31598000D03*
%TD*%
D12*
%TO.C,R47*%
X12780000Y53618000D03*
X12780000Y55142000D03*
%TD*%
D17*
%TO.C,R42*%
X-1628000Y49850000D03*
X-3152000Y49850000D03*
%TD*%
D20*
%TO.C,R59*%
X-43430000Y37062000D03*
X-43430000Y35538000D03*
%TD*%
D14*
%TO.C,C4*%
X-36252000Y21290000D03*
X-34728000Y21290000D03*
%TD*%
D27*
%TO.C,L1*%
X-31630000Y29080000D03*
X-27330000Y29080000D03*
%TD*%
D12*
%TO.C,R17*%
X4450000Y12438000D03*
X4450000Y13962000D03*
%TD*%
%TO.C,C23*%
X-32400000Y35538000D03*
X-32400000Y37062000D03*
%TD*%
%TO.C,R10*%
X26950000Y37088000D03*
X26950000Y38612000D03*
%TD*%
D28*
%TO.C,J2*%
X23500000Y44100000D03*
D29*
X23500000Y41560000D03*
X26040000Y44100000D03*
X26040000Y41560000D03*
X28580000Y44100000D03*
X28580000Y41560000D03*
X31120000Y44100000D03*
X31120000Y41560000D03*
%TD*%
D12*
%TO.C,R4*%
X13230000Y16238000D03*
X13230000Y17762000D03*
%TD*%
D30*
%TO.C,U2*%
X-26130000Y40780000D03*
X-28710000Y40780000D03*
X-31250000Y40780000D03*
X-33790000Y40780000D03*
X-36330000Y40780000D03*
X-38870000Y40780000D03*
X-41410000Y40780000D03*
X-43950000Y40780000D03*
X-46490000Y40780000D03*
X-28970000Y61300000D03*
X-31440000Y61300000D03*
X-33980000Y61300000D03*
X-36520000Y61300000D03*
X-39060000Y61300000D03*
X-41600000Y61300000D03*
%TD*%
D31*
%TO.C,C22*%
X-26290000Y38184000D03*
X-26290000Y35136000D03*
%TD*%
D15*
%TO.C,C7*%
X-36226000Y26430000D03*
X-34194000Y26430000D03*
%TD*%
D12*
%TO.C,R22*%
X7120000Y16238000D03*
X7120000Y17762000D03*
%TD*%
D15*
%TO.C,C14*%
X36964000Y46210000D03*
X38996000Y46210000D03*
%TD*%
D12*
%TO.C,R54*%
X-46380000Y35538000D03*
X-46380000Y37062000D03*
%TD*%
D14*
%TO.C,R58*%
X-43462000Y34082000D03*
X-41938000Y34082000D03*
%TD*%
D32*
%TO.C,J4*%
X5430000Y64800000D03*
X-2550000Y64800000D03*
D33*
X-1700000Y54300000D03*
X-600000Y54300000D03*
X500000Y54300000D03*
X1600000Y54300000D03*
X2700000Y54300000D03*
D34*
X8250000Y54800000D03*
D35*
X8250000Y64400000D03*
D33*
X3800000Y54300000D03*
D36*
X-6350000Y54800000D03*
D35*
X-7250000Y64400000D03*
D33*
X4900000Y54300000D03*
X6000000Y54300000D03*
X7100000Y54300000D03*
%TD*%
D17*
%TO.C,R56*%
X42702000Y63190000D03*
X41178000Y63190000D03*
%TD*%
D12*
%TO.C,R12*%
X-2860000Y16238000D03*
X-2860000Y17762000D03*
%TD*%
%TO.C,R34*%
X-18800000Y16238000D03*
X-18800000Y17762000D03*
%TD*%
D20*
%TO.C,C18*%
X-14300000Y29602000D03*
X-14300000Y28078000D03*
%TD*%
%TO.C,C25*%
X-33900000Y37062000D03*
X-33900000Y35538000D03*
%TD*%
D12*
%TO.C,R39*%
X30840000Y37038000D03*
X30840000Y38562000D03*
%TD*%
D18*
%TO.C,C10*%
X-24860000Y29080000D03*
X-24860000Y27048000D03*
%TD*%
D12*
%TO.C,R23*%
X1610000Y16238000D03*
X1610000Y17762000D03*
%TD*%
D16*
%TO.C,PAD02*%
X27850000Y16000000D03*
%TD*%
D37*
%TO.C,C16*%
X37003000Y41550000D03*
X39797000Y41550000D03*
%TD*%
D38*
%TO.C,FB1*%
X-20860000Y29104000D03*
X-20860000Y31136000D03*
%TD*%
D20*
%TO.C,R1*%
X-38700000Y19672000D03*
X-38700000Y18148000D03*
%TD*%
D12*
%TO.C,R49*%
X-6370000Y49728000D03*
X-6370000Y51252000D03*
%TD*%
D14*
%TO.C,R43*%
X-44662000Y62500000D03*
X-43138000Y62500000D03*
%TD*%
%TO.C,C19*%
X1638000Y50270000D03*
X3162000Y50270000D03*
%TD*%
%TO.C,C21*%
X1628000Y51660000D03*
X3152000Y51660000D03*
%TD*%
D12*
%TO.C,R14*%
X-5580000Y16238000D03*
X-5580000Y17762000D03*
%TD*%
%TO.C,C26*%
X-41960000Y35538000D03*
X-41960000Y37062000D03*
%TD*%
%TO.C,R18*%
X5690000Y16238000D03*
X5690000Y17762000D03*
%TD*%
D14*
%TO.C,C13*%
X36958000Y47890000D03*
X38482000Y47890000D03*
%TD*%
D39*
%TO.C,U1*%
X-10440000Y24560000D03*
D40*
X-7900000Y24560000D03*
X-5360000Y24560000D03*
X-2820000Y24560000D03*
X-280000Y24560000D03*
X2260000Y24560000D03*
X4800000Y24560000D03*
X7340000Y24560000D03*
X9880000Y24560000D03*
X12420000Y24560000D03*
X12420000Y27100000D03*
X12420000Y29640000D03*
X12420000Y32180000D03*
X12420000Y34720000D03*
X12420000Y37260000D03*
X12420000Y39800000D03*
X12420000Y42340000D03*
X12420000Y44880000D03*
X12420000Y47420000D03*
X9880000Y47420000D03*
X7340000Y47420000D03*
X4800000Y47420000D03*
X2260000Y47420000D03*
X-280000Y47420000D03*
X-2820000Y47420000D03*
X-5360000Y47420000D03*
X-7900000Y47420000D03*
X-10440000Y47420000D03*
X-10440000Y44880000D03*
X-10440000Y42340000D03*
X-10440000Y39800000D03*
X-10440000Y37260000D03*
X-10440000Y34720000D03*
X-10440000Y32180000D03*
X-10440000Y29640000D03*
X-10440000Y27100000D03*
X-7900000Y27100000D03*
X-5360000Y27100000D03*
X-2820000Y27100000D03*
X-280000Y27100000D03*
X2260000Y27100000D03*
X4800000Y27100000D03*
X7340000Y27100000D03*
X9880000Y27100000D03*
X9880000Y29640000D03*
X9880000Y32180000D03*
X9880000Y34720000D03*
X9880000Y37260000D03*
X9880000Y39800000D03*
X9880000Y42340000D03*
X9880000Y44880000D03*
X7340000Y44880000D03*
X4800000Y44880000D03*
X2260000Y44880000D03*
X-280000Y44880000D03*
X-2820000Y44880000D03*
X-5360000Y44880000D03*
X-7900000Y44880000D03*
X-7900000Y42340000D03*
X-7900000Y39800000D03*
X-7900000Y37260000D03*
X-7900000Y34720000D03*
X-7900000Y32180000D03*
X-7900000Y29640000D03*
%TD*%
D12*
%TO.C,R30*%
X-13550000Y16238000D03*
X-13550000Y17762000D03*
%TD*%
D15*
%TO.C,C15*%
X36964000Y44230000D03*
X38996000Y44230000D03*
%TD*%
D14*
%TO.C,R55*%
X40868000Y50680000D03*
X42392000Y50680000D03*
%TD*%
D12*
%TO.C,R25*%
X60000Y16238000D03*
X60000Y17762000D03*
%TD*%
D14*
%TO.C,C29*%
X-43464000Y32610000D03*
X-41940000Y32610000D03*
%TD*%
D41*
%TO.C,D1*%
X-14910000Y31290000D03*
X-12710000Y31290000D03*
%TD*%
D12*
%TO.C,R21*%
X8610000Y12438000D03*
X8610000Y13962000D03*
%TD*%
D17*
%TO.C,R50*%
X-38918000Y37080000D03*
X-40442000Y37080000D03*
%TD*%
D20*
%TO.C,R20*%
X9800000Y17762000D03*
X9800000Y16238000D03*
%TD*%
%TO.C,C28*%
X39020000Y61922000D03*
X39020000Y60398000D03*
%TD*%
D12*
%TO.C,R46*%
X11370000Y53618000D03*
X11370000Y55142000D03*
%TD*%
D42*
%TO.C,Q2*%
X-33410000Y15730000D03*
X-35310000Y15730000D03*
X-34360000Y13530000D03*
%TD*%
D12*
%TO.C,R19*%
X2950000Y12438000D03*
X2950000Y13962000D03*
%TD*%
%TO.C,R45*%
X9890000Y53488000D03*
X9890000Y55012000D03*
%TD*%
D20*
%TO.C,R41*%
X-13060000Y35422000D03*
X-13060000Y33898000D03*
%TD*%
%TO.C,C20*%
X-24280000Y38192000D03*
X-24280000Y36668000D03*
%TD*%
D12*
%TO.C,R7*%
X-39360000Y31598000D03*
X-39360000Y33122000D03*
%TD*%
%TO.C,R13*%
X-7070000Y12438000D03*
X-7070000Y13962000D03*
%TD*%
%TO.C,R16*%
X-8660000Y16238000D03*
X-8660000Y17762000D03*
%TD*%
%TO.C,C24*%
X-44910000Y35538000D03*
X-44910000Y37062000D03*
%TD*%
%TO.C,R27*%
X-11300000Y12438000D03*
X-11300000Y13962000D03*
%TD*%
D43*
%TO.C,S1*%
X-22857500Y64500000D03*
X-21157500Y64500000D03*
D44*
X-23707500Y63200000D03*
X-20307500Y63200000D03*
D45*
X-24132500Y65450000D03*
D46*
X-19882500Y65450000D03*
%TD*%
D12*
%TO.C,C1*%
X-36990000Y14558000D03*
X-36990000Y16082000D03*
%TD*%
D20*
%TO.C,R5*%
X-20240000Y13962000D03*
X-20240000Y12438000D03*
%TD*%
D12*
%TO.C,R15*%
X-9150000Y12438000D03*
X-9150000Y13962000D03*
%TD*%
%TO.C,R36*%
X14700000Y16238000D03*
X14700000Y17762000D03*
%TD*%
D20*
%TO.C,C17*%
X-12820000Y29612000D03*
X-12820000Y28088000D03*
%TD*%
D47*
%TO.C,R52*%
X-28584000Y37000000D03*
X-30616000Y37000000D03*
%TD*%
D39*
%TO.C,J3*%
X-15540000Y60500000D03*
D40*
X-13000000Y60500000D03*
X-10460000Y60500000D03*
%TD*%
D12*
%TO.C,R37*%
X17520000Y16238000D03*
X17520000Y17762000D03*
%TD*%
%TO.C,R29*%
X-13550000Y12438000D03*
X-13550000Y13962000D03*
%TD*%
%TO.C,R24*%
X-1320000Y12438000D03*
X-1320000Y13962000D03*
%TD*%
D48*
%TO.C,J11*%
X30480000Y4900000D03*
X27940000Y4900000D03*
X25400000Y4900000D03*
X22860000Y4900000D03*
X20320000Y4900000D03*
X17780000Y4900000D03*
X15240000Y4900000D03*
X12700000Y4900000D03*
X10160000Y4900000D03*
X7620000Y4900000D03*
X5080000Y4900000D03*
X2540000Y4900000D03*
X0Y4900000D03*
X-2540000Y4900000D03*
X-5080000Y4900000D03*
X-7620000Y4900000D03*
X-10160000Y4900000D03*
X-12700000Y4900000D03*
X-15240000Y4900000D03*
X-17780000Y4900000D03*
X-20320000Y4900000D03*
D49*
X-22860000Y5400000D03*
D48*
X-25400000Y4900000D03*
X-27940000Y4900000D03*
X-30480000Y4900000D03*
%TD*%
D12*
%TO.C,R28*%
X-11270000Y16238000D03*
X-11270000Y17762000D03*
%TD*%
D20*
%TO.C,C2*%
X-30950000Y15044000D03*
X-30950000Y13520000D03*
%TD*%
M02*
