ISO-10303-21;
HEADER;
FILE_DESCRIPTION(('STEP AP214'),'1');
FILE_NAME('ESP01.stp','2019-11-01T08:31:27',(' '),(' '),'Spatial InterOp 3D',' ',' ');
FILE_SCHEMA(('automotive_design'));
ENDSEC;
DATA;
#1=MECHANICAL_DESIGN_GEOMETRIC_PRESENTATION_REPRESENTATION(' ',(#10,#11,#12,#13,#14,#15,#16,#17,#18,#19,#20,#21,#22,#23,#24,#25,#26,#27,#28,#29,#30,#31,#32,#33,#34,#35,#36,#37,#38,#39,#40,#41,#42,#43,#44,#45,#46,#47,#48,#49,#50,#51,#52,#53,#54,#55,#56,#57,#58,#59),#6);
#2=PRODUCT_DEFINITION_CONTEXT('',#60,'design');
#3=APPLICATION_PROTOCOL_DEFINITION('INTERNATIONAL STANDARD','automotive_design',1994,#60);
#4=PRODUCT_CATEGORY_RELATIONSHIP('NONE','NONE',#61,#62);
#5=SHAPE_DEFINITION_REPRESENTATION(#63,#64);
#6= (GEOMETRIC_REPRESENTATION_CONTEXT(3)GLOBAL_UNCERTAINTY_ASSIGNED_CONTEXT((#67))GLOBAL_UNIT_ASSIGNED_CONTEXT((#69,#70,#71))REPRESENTATION_CONTEXT('NONE','WORKSPACE'));
#10=STYLED_ITEM('',(#73),#74);
#11=STYLED_ITEM('',(#75),#76);
#12=STYLED_ITEM('',(#77),#78);
#13=STYLED_ITEM('',(#79),#80);
#14=STYLED_ITEM('',(#81),#82);
#15=STYLED_ITEM('',(#83),#84);
#16=STYLED_ITEM('',(#85),#86);
#17=STYLED_ITEM('',(#87),#88);
#18=STYLED_ITEM('',(#89),#90);
#19=STYLED_ITEM('',(#91),#92);
#20=STYLED_ITEM('',(#93),#94);
#21=STYLED_ITEM('',(#95),#96);
#22=STYLED_ITEM('',(#97),#98);
#23=STYLED_ITEM('',(#99),#100);
#24=STYLED_ITEM('',(#101),#102);
#25=STYLED_ITEM('',(#103),#104);
#26=STYLED_ITEM('',(#105),#106);
#27=STYLED_ITEM('',(#107),#108);
#28=STYLED_ITEM('',(#109),#110);
#29=STYLED_ITEM('',(#111),#112);
#30=STYLED_ITEM('',(#113),#114);
#31=STYLED_ITEM('',(#115),#116);
#32=STYLED_ITEM('',(#117),#118);
#33=STYLED_ITEM('',(#119),#120);
#34=STYLED_ITEM('',(#121),#122);
#35=STYLED_ITEM('',(#123),#124);
#36=STYLED_ITEM('',(#125),#126);
#37=STYLED_ITEM('',(#127),#128);
#38=STYLED_ITEM('',(#129),#130);
#39=STYLED_ITEM('',(#131),#132);
#40=STYLED_ITEM('',(#133),#134);
#41=STYLED_ITEM('',(#135),#136);
#42=STYLED_ITEM('',(#137),#138);
#43=STYLED_ITEM('',(#139),#140);
#44=STYLED_ITEM('',(#141),#142);
#45=STYLED_ITEM('',(#143),#144);
#46=STYLED_ITEM('',(#145),#146);
#47=STYLED_ITEM('',(#147),#148);
#48=STYLED_ITEM('',(#149),#150);
#49=STYLED_ITEM('',(#151),#152);
#50=STYLED_ITEM('',(#153),#154);
#51=STYLED_ITEM('',(#155),#156);
#52=STYLED_ITEM('',(#157),#158);
#53=STYLED_ITEM('',(#159),#160);
#54=STYLED_ITEM('',(#161),#162);
#55=STYLED_ITEM('',(#163),#164);
#56=STYLED_ITEM('',(#165),#166);
#57=STYLED_ITEM('',(#167),#168);
#58=STYLED_ITEM('',(#169),#170);
#59=STYLED_ITEM('',(#171),#172);
#60=APPLICATION_CONTEXT(' ');
#61=PRODUCT_CATEGORY('part','NONE');
#62=PRODUCT_RELATED_PRODUCT_CATEGORY('detail',' ',(#173));
#63=PRODUCT_DEFINITION_SHAPE('NONE','NONE',#174);
#64=ADVANCED_BREP_SHAPE_REPRESENTATION('\X2\D30CD2B8\X0\1',(#175,#176),#6);
#67=UNCERTAINTY_MEASURE_WITH_UNIT(LENGTH_MEASURE(0.001),#69,'','');
#69= (CONVERSION_BASED_UNIT('MILLIMETRE',#179)LENGTH_UNIT()NAMED_UNIT(#182));
#70= (NAMED_UNIT(#184)PLANE_ANGLE_UNIT()SI_UNIT($,.RADIAN.));
#71= (NAMED_UNIT(#184)SOLID_ANGLE_UNIT()SI_UNIT($,.STERADIAN.));
#73=PRESENTATION_STYLE_ASSIGNMENT((#190));
#74=ADVANCED_FACE('',(#191),#192,.F.);
#75=PRESENTATION_STYLE_ASSIGNMENT((#193));
#76=ADVANCED_FACE('',(#194),#195,.F.);
#77=PRESENTATION_STYLE_ASSIGNMENT((#196));
#78=ADVANCED_FACE('',(#197),#198,.F.);
#79=PRESENTATION_STYLE_ASSIGNMENT((#199));
#80=ADVANCED_FACE('',(#200,#201,#202,#203,#204,#205,#206,#207,#208),#209,.F.);
#81=PRESENTATION_STYLE_ASSIGNMENT((#210));
#82=ADVANCED_FACE('',(#211),#212,.F.);
#83=PRESENTATION_STYLE_ASSIGNMENT((#213));
#84=ADVANCED_FACE('',(#214,#215,#216,#217,#218,#219,#220,#221,#222,#223,#224),#225,.T.);
#85=PRESENTATION_STYLE_ASSIGNMENT((#226));
#86=ADVANCED_FACE('',(#227),#228,.F.);
#87=PRESENTATION_STYLE_ASSIGNMENT((#229));
#88=ADVANCED_FACE('',(#230),#231,.F.);
#89=PRESENTATION_STYLE_ASSIGNMENT((#232));
#90=ADVANCED_FACE('',(#233),#234,.F.);
#91=PRESENTATION_STYLE_ASSIGNMENT((#235));
#92=ADVANCED_FACE('',(#236),#237,.T.);
#93=PRESENTATION_STYLE_ASSIGNMENT((#238));
#94=ADVANCED_FACE('',(#239),#240,.F.);
#95=PRESENTATION_STYLE_ASSIGNMENT((#241));
#96=ADVANCED_FACE('',(#242),#243,.F.);
#97=PRESENTATION_STYLE_ASSIGNMENT((#244));
#98=ADVANCED_FACE('',(#245),#246,.F.);
#99=PRESENTATION_STYLE_ASSIGNMENT((#247));
#100=ADVANCED_FACE('',(#248),#249,.F.);
#101=PRESENTATION_STYLE_ASSIGNMENT((#250));
#102=ADVANCED_FACE('',(#251),#252,.T.);
#103=PRESENTATION_STYLE_ASSIGNMENT((#253));
#104=ADVANCED_FACE('',(#254,#255),#256,.T.);
#105=PRESENTATION_STYLE_ASSIGNMENT((#257));
#106=ADVANCED_FACE('',(#258),#259,.F.);
#107=PRESENTATION_STYLE_ASSIGNMENT((#260));
#108=ADVANCED_FACE('',(#261),#262,.T.);
#109=PRESENTATION_STYLE_ASSIGNMENT((#263));
#110=ADVANCED_FACE('',(#264,#265),#266,.T.);
#111=PRESENTATION_STYLE_ASSIGNMENT((#267));
#112=ADVANCED_FACE('',(#268),#269,.F.);
#113=PRESENTATION_STYLE_ASSIGNMENT((#270));
#114=ADVANCED_FACE('',(#271),#272,.T.);
#115=PRESENTATION_STYLE_ASSIGNMENT((#273));
#116=ADVANCED_FACE('',(#274,#275),#276,.T.);
#117=PRESENTATION_STYLE_ASSIGNMENT((#277));
#118=ADVANCED_FACE('',(#278),#279,.F.);
#119=PRESENTATION_STYLE_ASSIGNMENT((#280));
#120=ADVANCED_FACE('',(#281),#282,.T.);
#121=PRESENTATION_STYLE_ASSIGNMENT((#283));
#122=ADVANCED_FACE('',(#284,#285),#286,.T.);
#123=PRESENTATION_STYLE_ASSIGNMENT((#287));
#124=ADVANCED_FACE('',(#288),#289,.F.);
#125=PRESENTATION_STYLE_ASSIGNMENT((#290));
#126=ADVANCED_FACE('',(#291),#292,.T.);
#127=PRESENTATION_STYLE_ASSIGNMENT((#293));
#128=ADVANCED_FACE('',(#294,#295),#296,.T.);
#129=PRESENTATION_STYLE_ASSIGNMENT((#297));
#130=ADVANCED_FACE('',(#298),#299,.F.);
#131=PRESENTATION_STYLE_ASSIGNMENT((#300));
#132=ADVANCED_FACE('',(#301),#302,.T.);
#133=PRESENTATION_STYLE_ASSIGNMENT((#303));
#134=ADVANCED_FACE('',(#304,#305),#306,.T.);
#135=PRESENTATION_STYLE_ASSIGNMENT((#307));
#136=ADVANCED_FACE('',(#308),#309,.F.);
#137=PRESENTATION_STYLE_ASSIGNMENT((#310));
#138=ADVANCED_FACE('',(#311),#312,.T.);
#139=PRESENTATION_STYLE_ASSIGNMENT((#313));
#140=ADVANCED_FACE('',(#314,#315),#316,.T.);
#141=PRESENTATION_STYLE_ASSIGNMENT((#317));
#142=ADVANCED_FACE('',(#318),#319,.F.);
#143=PRESENTATION_STYLE_ASSIGNMENT((#320));
#144=ADVANCED_FACE('',(#321),#322,.T.);
#145=PRESENTATION_STYLE_ASSIGNMENT((#323));
#146=ADVANCED_FACE('',(#324,#325),#326,.T.);
#147=PRESENTATION_STYLE_ASSIGNMENT((#327));
#148=ADVANCED_FACE('',(#328),#329,.F.);
#149=PRESENTATION_STYLE_ASSIGNMENT((#330));
#150=ADVANCED_FACE('',(#331),#332,.T.);
#151=PRESENTATION_STYLE_ASSIGNMENT((#333));
#152=ADVANCED_FACE('',(#334),#335,.T.);
#153=PRESENTATION_STYLE_ASSIGNMENT((#336));
#154=ADVANCED_FACE('',(#337),#338,.F.);
#155=PRESENTATION_STYLE_ASSIGNMENT((#339));
#156=ADVANCED_FACE('',(#340),#341,.F.);
#157=PRESENTATION_STYLE_ASSIGNMENT((#342));
#158=ADVANCED_FACE('',(#343,#344),#345,.T.);
#159=PRESENTATION_STYLE_ASSIGNMENT((#346));
#160=ADVANCED_FACE('',(#347,#348),#349,.T.);
#161=PRESENTATION_STYLE_ASSIGNMENT((#350));
#162=ADVANCED_FACE('',(#351,#352),#353,.T.);
#163=PRESENTATION_STYLE_ASSIGNMENT((#354));
#164=ADVANCED_FACE('',(#355,#356),#357,.T.);
#165=PRESENTATION_STYLE_ASSIGNMENT((#358));
#166=ADVANCED_FACE('',(#359,#360),#361,.T.);
#167=PRESENTATION_STYLE_ASSIGNMENT((#362));
#168=ADVANCED_FACE('',(#363,#364),#365,.T.);
#169=PRESENTATION_STYLE_ASSIGNMENT((#366));
#170=ADVANCED_FACE('',(#367,#368),#369,.T.);
#171=PRESENTATION_STYLE_ASSIGNMENT((#370));
#172=ADVANCED_FACE('',(#371,#372),#373,.T.);
#173=PRODUCT('\X2\D30CD2B8\X0\1','\X2\D30CD2B8\X0\1','PART-\X2\D30CD2B8\X0\1-DESC',(#374));
#174=PRODUCT_DEFINITION('NONE','NONE',#375,#2);
#175=MANIFOLD_SOLID_BREP('\X2\D30CD2B8\X0\1',#376);
#176=AXIS2_PLACEMENT_3D('',#377,#378,#379);
#179=LENGTH_MEASURE_WITH_UNIT(LENGTH_MEASURE(1.0),#380);
#182=DIMENSIONAL_EXPONENTS(1.0,0.0,0.0,0.0,0.0,0.0,0.0);
#184=DIMENSIONAL_EXPONENTS(0.0,0.0,0.0,0.0,0.0,0.0,0.0);
#190=SURFACE_STYLE_USAGE(.BOTH.,#381);
#191=FACE_OUTER_BOUND('',#382,.T.);
#192=PLANE('',#383);
#193=SURFACE_STYLE_USAGE(.BOTH.,#384);
#194=FACE_OUTER_BOUND('',#385,.T.);
#195=PLANE('',#386);
#196=SURFACE_STYLE_USAGE(.BOTH.,#387);
#197=FACE_OUTER_BOUND('',#388,.T.);
#198=PLANE('',#389);
#199=SURFACE_STYLE_USAGE(.BOTH.,#390);
#200=FACE_BOUND('',#391,.T.);
#201=FACE_BOUND('',#392,.T.);
#202=FACE_BOUND('',#393,.T.);
#203=FACE_BOUND('',#394,.T.);
#204=FACE_BOUND('',#395,.T.);
#205=FACE_BOUND('',#396,.T.);
#206=FACE_BOUND('',#397,.T.);
#207=FACE_BOUND('',#398,.T.);
#208=FACE_OUTER_BOUND('',#399,.T.);
#209=PLANE('',#400);
#210=SURFACE_STYLE_USAGE(.BOTH.,#401);
#211=FACE_OUTER_BOUND('',#402,.T.);
#212=PLANE('',#403);
#213=SURFACE_STYLE_USAGE(.BOTH.,#404);
#214=FACE_BOUND('',#405,.T.);
#215=FACE_BOUND('',#406,.T.);
#216=FACE_BOUND('',#407,.T.);
#217=FACE_BOUND('',#408,.T.);
#218=FACE_BOUND('',#409,.T.);
#219=FACE_BOUND('',#410,.T.);
#220=FACE_BOUND('',#411,.T.);
#221=FACE_BOUND('',#412,.T.);
#222=FACE_BOUND('',#413,.T.);
#223=FACE_BOUND('',#414,.T.);
#224=FACE_OUTER_BOUND('',#415,.T.);
#225=PLANE('',#416);
#226=SURFACE_STYLE_USAGE(.BOTH.,#417);
#227=FACE_OUTER_BOUND('',#418,.T.);
#228=PLANE('',#419);
#229=SURFACE_STYLE_USAGE(.BOTH.,#420);
#230=FACE_OUTER_BOUND('',#421,.T.);
#231=PLANE('',#422);
#232=SURFACE_STYLE_USAGE(.BOTH.,#423);
#233=FACE_OUTER_BOUND('',#424,.T.);
#234=PLANE('',#425);
#235=SURFACE_STYLE_USAGE(.BOTH.,#426);
#236=FACE_OUTER_BOUND('',#427,.T.);
#237=PLANE('',#428);
#238=SURFACE_STYLE_USAGE(.BOTH.,#429);
#239=FACE_OUTER_BOUND('',#430,.T.);
#240=PLANE('',#431);
#241=SURFACE_STYLE_USAGE(.BOTH.,#432);
#242=FACE_OUTER_BOUND('',#433,.T.);
#243=PLANE('',#434);
#244=SURFACE_STYLE_USAGE(.BOTH.,#435);
#245=FACE_OUTER_BOUND('',#436,.T.);
#246=PLANE('',#437);
#247=SURFACE_STYLE_USAGE(.BOTH.,#438);
#248=FACE_OUTER_BOUND('',#439,.T.);
#249=PLANE('',#440);
#250=SURFACE_STYLE_USAGE(.BOTH.,#441);
#251=FACE_OUTER_BOUND('',#442,.T.);
#252=PLANE('',#443);
#253=SURFACE_STYLE_USAGE(.BOTH.,#444);
#254=FACE_OUTER_BOUND('',#445,.T.);
#255=FACE_OUTER_BOUND('',#446,.T.);
#256=CYLINDRICAL_SURFACE('',#447,0.4);
#257=SURFACE_STYLE_USAGE(.BOTH.,#448);
#258=FACE_OUTER_BOUND('',#449,.T.);
#259=PLANE('',#450);
#260=SURFACE_STYLE_USAGE(.BOTH.,#451);
#261=FACE_OUTER_BOUND('',#452,.T.);
#262=PLANE('',#453);
#263=SURFACE_STYLE_USAGE(.BOTH.,#454);
#264=FACE_OUTER_BOUND('',#455,.T.);
#265=FACE_OUTER_BOUND('',#456,.T.);
#266=CYLINDRICAL_SURFACE('',#457,0.4);
#267=SURFACE_STYLE_USAGE(.BOTH.,#458);
#268=FACE_OUTER_BOUND('',#459,.T.);
#269=PLANE('',#460);
#270=SURFACE_STYLE_USAGE(.BOTH.,#461);
#271=FACE_OUTER_BOUND('',#462,.T.);
#272=PLANE('',#463);
#273=SURFACE_STYLE_USAGE(.BOTH.,#464);
#274=FACE_OUTER_BOUND('',#465,.T.);
#275=FACE_OUTER_BOUND('',#466,.T.);
#276=CYLINDRICAL_SURFACE('',#467,0.4);
#277=SURFACE_STYLE_USAGE(.BOTH.,#468);
#278=FACE_OUTER_BOUND('',#469,.T.);
#279=PLANE('',#470);
#280=SURFACE_STYLE_USAGE(.BOTH.,#471);
#281=FACE_OUTER_BOUND('',#472,.T.);
#282=PLANE('',#473);
#283=SURFACE_STYLE_USAGE(.BOTH.,#474);
#284=FACE_OUTER_BOUND('',#475,.T.);
#285=FACE_OUTER_BOUND('',#476,.T.);
#286=CYLINDRICAL_SURFACE('',#477,0.4);
#287=SURFACE_STYLE_USAGE(.BOTH.,#478);
#288=FACE_OUTER_BOUND('',#479,.T.);
#289=PLANE('',#480);
#290=SURFACE_STYLE_USAGE(.BOTH.,#481);
#291=FACE_OUTER_BOUND('',#482,.T.);
#292=PLANE('',#483);
#293=SURFACE_STYLE_USAGE(.BOTH.,#484);
#294=FACE_OUTER_BOUND('',#485,.T.);
#295=FACE_OUTER_BOUND('',#486,.T.);
#296=CYLINDRICAL_SURFACE('',#487,0.4);
#297=SURFACE_STYLE_USAGE(.BOTH.,#488);
#298=FACE_OUTER_BOUND('',#489,.T.);
#299=PLANE('',#490);
#300=SURFACE_STYLE_USAGE(.BOTH.,#491);
#301=FACE_OUTER_BOUND('',#492,.T.);
#302=PLANE('',#493);
#303=SURFACE_STYLE_USAGE(.BOTH.,#494);
#304=FACE_OUTER_BOUND('',#495,.T.);
#305=FACE_OUTER_BOUND('',#496,.T.);
#306=CYLINDRICAL_SURFACE('',#497,0.4);
#307=SURFACE_STYLE_USAGE(.BOTH.,#498);
#308=FACE_OUTER_BOUND('',#499,.T.);
#309=PLANE('',#500);
#310=SURFACE_STYLE_USAGE(.BOTH.,#501);
#311=FACE_OUTER_BOUND('',#502,.T.);
#312=PLANE('',#503);
#313=SURFACE_STYLE_USAGE(.BOTH.,#504);
#314=FACE_OUTER_BOUND('',#505,.T.);
#315=FACE_OUTER_BOUND('',#506,.T.);
#316=CYLINDRICAL_SURFACE('',#507,0.4);
#317=SURFACE_STYLE_USAGE(.BOTH.,#508);
#318=FACE_OUTER_BOUND('',#509,.T.);
#319=PLANE('',#510);
#320=SURFACE_STYLE_USAGE(.BOTH.,#511);
#321=FACE_OUTER_BOUND('',#512,.T.);
#322=PLANE('',#513);
#323=SURFACE_STYLE_USAGE(.BOTH.,#514);
#324=FACE_OUTER_BOUND('',#515,.T.);
#325=FACE_OUTER_BOUND('',#516,.T.);
#326=CYLINDRICAL_SURFACE('',#517,0.4);
#327=SURFACE_STYLE_USAGE(.BOTH.,#518);
#328=FACE_OUTER_BOUND('',#519,.T.);
#329=PLANE('',#520);
#330=SURFACE_STYLE_USAGE(.BOTH.,#521);
#331=FACE_OUTER_BOUND('',#522,.T.);
#332=PLANE('',#523);
#333=SURFACE_STYLE_USAGE(.BOTH.,#524);
#334=FACE_OUTER_BOUND('',#525,.T.);
#335=PLANE('',#526);
#336=SURFACE_STYLE_USAGE(.BOTH.,#527);
#337=FACE_OUTER_BOUND('',#528,.T.);
#338=PLANE('',#529);
#339=SURFACE_STYLE_USAGE(.BOTH.,#530);
#340=FACE_OUTER_BOUND('',#531,.T.);
#341=PLANE('',#532);
#342=SURFACE_STYLE_USAGE(.BOTH.,#533);
#343=FACE_OUTER_BOUND('',#534,.T.);
#344=FACE_OUTER_BOUND('',#535,.T.);
#345=CYLINDRICAL_SURFACE('',#536,0.4);
#346=SURFACE_STYLE_USAGE(.BOTH.,#537);
#347=FACE_OUTER_BOUND('',#538,.T.);
#348=FACE_OUTER_BOUND('',#539,.T.);
#349=CYLINDRICAL_SURFACE('',#540,0.4);
#350=SURFACE_STYLE_USAGE(.BOTH.,#541);
#351=FACE_OUTER_BOUND('',#542,.T.);
#352=FACE_OUTER_BOUND('',#543,.T.);
#353=CYLINDRICAL_SURFACE('',#544,0.4);
#354=SURFACE_STYLE_USAGE(.BOTH.,#545);
#355=FACE_OUTER_BOUND('',#546,.T.);
#356=FACE_OUTER_BOUND('',#547,.T.);
#357=CYLINDRICAL_SURFACE('',#548,0.4);
#358=SURFACE_STYLE_USAGE(.BOTH.,#549);
#359=FACE_OUTER_BOUND('',#550,.T.);
#360=FACE_OUTER_BOUND('',#551,.T.);
#361=CYLINDRICAL_SURFACE('',#552,0.4);
#362=SURFACE_STYLE_USAGE(.BOTH.,#553);
#363=FACE_OUTER_BOUND('',#554,.T.);
#364=FACE_OUTER_BOUND('',#555,.T.);
#365=CYLINDRICAL_SURFACE('',#556,0.4);
#366=SURFACE_STYLE_USAGE(.BOTH.,#557);
#367=FACE_OUTER_BOUND('',#558,.T.);
#368=FACE_OUTER_BOUND('',#559,.T.);
#369=CYLINDRICAL_SURFACE('',#560,0.4);
#370=SURFACE_STYLE_USAGE(.BOTH.,#561);
#371=FACE_OUTER_BOUND('',#562,.T.);
#372=FACE_OUTER_BOUND('',#563,.T.);
#373=CYLINDRICAL_SURFACE('',#564,0.4);
#374=PRODUCT_CONTEXT('',#60,'mechanical');
#375=PRODUCT_DEFINITION_FORMATION_WITH_SPECIFIED_SOURCE(' ','NONE',#173,.NOT_KNOWN.);
#376=CLOSED_SHELL('',(#74,#76,#78,#80,#82,#84,#86,#88,#90,#92,#94,#96,#98,#100,#102,#104,#106,#108,#110,#112,#114,#116,#118,#120,#122,#124,#126,#128,#130,#132,#134,#136,#138,#140,#142,#144,#146,#148,#150,#152,#154,#156,#158,#160,#162,#164,#166,#168,#170,#172));
#377=CARTESIAN_POINT('',(0.0,0.0,0.0));
#378=DIRECTION('',(0.0,0.0,1.0));
#379=DIRECTION('',(1.0,0.0,0.0));
#380= (NAMED_UNIT(#182)LENGTH_UNIT()SI_UNIT(.MILLI.,.METRE.));
#381=SURFACE_SIDE_STYLE('',(#566));
#382=EDGE_LOOP('',(#567,#568,#569,#570));
#383=AXIS2_PLACEMENT_3D('',#571,#572,#573);
#384=SURFACE_SIDE_STYLE('',(#574));
#385=EDGE_LOOP('',(#575,#576,#577,#578));
#386=AXIS2_PLACEMENT_3D('',#579,#580,#581);
#387=SURFACE_SIDE_STYLE('',(#582));
#388=EDGE_LOOP('',(#583,#584,#585,#586));
#389=AXIS2_PLACEMENT_3D('',#587,#588,#589);
#390=SURFACE_SIDE_STYLE('',(#590));
#391=EDGE_LOOP('',(#591));
#392=EDGE_LOOP('',(#592));
#393=EDGE_LOOP('',(#593));
#394=EDGE_LOOP('',(#594));
#395=EDGE_LOOP('',(#595));
#396=EDGE_LOOP('',(#596));
#397=EDGE_LOOP('',(#597));
#398=EDGE_LOOP('',(#598));
#399=EDGE_LOOP('',(#599,#600,#601,#602));
#400=AXIS2_PLACEMENT_3D('',#603,#604,#605);
#401=SURFACE_SIDE_STYLE('',(#606));
#402=EDGE_LOOP('',(#607,#608,#609,#610,#611,#612));
#403=AXIS2_PLACEMENT_3D('',#613,#614,#615);
#404=SURFACE_SIDE_STYLE('',(#616));
#405=EDGE_LOOP('',(#617));
#406=EDGE_LOOP('',(#618));
#407=EDGE_LOOP('',(#619));
#408=EDGE_LOOP('',(#620));
#409=EDGE_LOOP('',(#621));
#410=EDGE_LOOP('',(#622));
#411=EDGE_LOOP('',(#623));
#412=EDGE_LOOP('',(#624));
#413=EDGE_LOOP('',(#625,#626,#627,#628));
#414=EDGE_LOOP('',(#629,#630,#631,#632));
#415=EDGE_LOOP('',(#633,#634,#635,#636));
#416=AXIS2_PLACEMENT_3D('',#637,#638,#639);
#417=SURFACE_SIDE_STYLE('',(#640));
#418=EDGE_LOOP('',(#641,#642,#643,#644));
#419=AXIS2_PLACEMENT_3D('',#645,#646,#647);
#420=SURFACE_SIDE_STYLE('',(#648));
#421=EDGE_LOOP('',(#649,#650,#651,#652));
#422=AXIS2_PLACEMENT_3D('',#653,#654,#655);
#423=SURFACE_SIDE_STYLE('',(#656));
#424=EDGE_LOOP('',(#657,#658,#659,#660));
#425=AXIS2_PLACEMENT_3D('',#661,#662,#663);
#426=SURFACE_SIDE_STYLE('',(#664));
#427=EDGE_LOOP('',(#665,#666,#667,#668));
#428=AXIS2_PLACEMENT_3D('',#669,#670,#671);
#429=SURFACE_SIDE_STYLE('',(#672));
#430=EDGE_LOOP('',(#673,#674,#675,#676));
#431=AXIS2_PLACEMENT_3D('',#677,#678,#679);
#432=SURFACE_SIDE_STYLE('',(#680));
#433=EDGE_LOOP('',(#681,#682,#683,#684));
#434=AXIS2_PLACEMENT_3D('',#685,#686,#687);
#435=SURFACE_SIDE_STYLE('',(#688));
#436=EDGE_LOOP('',(#689,#690,#691,#692));
#437=AXIS2_PLACEMENT_3D('',#693,#694,#695);
#438=SURFACE_SIDE_STYLE('',(#696));
#439=EDGE_LOOP('',(#697,#698,#699,#700));
#440=AXIS2_PLACEMENT_3D('',#701,#702,#703);
#441=SURFACE_SIDE_STYLE('',(#704));
#442=EDGE_LOOP('',(#705,#706,#707,#708));
#443=AXIS2_PLACEMENT_3D('',#709,#710,#711);
#444=SURFACE_SIDE_STYLE('',(#712));
#445=EDGE_LOOP('',(#713));
#446=EDGE_LOOP('',(#714));
#447=AXIS2_PLACEMENT_3D('',#715,#716,#717);
#448=SURFACE_SIDE_STYLE('',(#718));
#449=EDGE_LOOP('',(#719));
#450=AXIS2_PLACEMENT_3D('',#720,#721,#722);
#451=SURFACE_SIDE_STYLE('',(#723));
#452=EDGE_LOOP('',(#724));
#453=AXIS2_PLACEMENT_3D('',#725,#726,#727);
#454=SURFACE_SIDE_STYLE('',(#728));
#455=EDGE_LOOP('',(#729));
#456=EDGE_LOOP('',(#730));
#457=AXIS2_PLACEMENT_3D('',#731,#732,#733);
#458=SURFACE_SIDE_STYLE('',(#734));
#459=EDGE_LOOP('',(#735));
#460=AXIS2_PLACEMENT_3D('',#736,#737,#738);
#461=SURFACE_SIDE_STYLE('',(#739));
#462=EDGE_LOOP('',(#740));
#463=AXIS2_PLACEMENT_3D('',#741,#742,#743);
#464=SURFACE_SIDE_STYLE('',(#744));
#465=EDGE_LOOP('',(#745));
#466=EDGE_LOOP('',(#746));
#467=AXIS2_PLACEMENT_3D('',#747,#748,#749);
#468=SURFACE_SIDE_STYLE('',(#750));
#469=EDGE_LOOP('',(#751));
#470=AXIS2_PLACEMENT_3D('',#752,#753,#754);
#471=SURFACE_SIDE_STYLE('',(#755));
#472=EDGE_LOOP('',(#756));
#473=AXIS2_PLACEMENT_3D('',#757,#758,#759);
#474=SURFACE_SIDE_STYLE('',(#760));
#475=EDGE_LOOP('',(#761));
#476=EDGE_LOOP('',(#762));
#477=AXIS2_PLACEMENT_3D('',#763,#764,#765);
#478=SURFACE_SIDE_STYLE('',(#766));
#479=EDGE_LOOP('',(#767));
#480=AXIS2_PLACEMENT_3D('',#768,#769,#770);
#481=SURFACE_SIDE_STYLE('',(#771));
#482=EDGE_LOOP('',(#772));
#483=AXIS2_PLACEMENT_3D('',#773,#774,#775);
#484=SURFACE_SIDE_STYLE('',(#776));
#485=EDGE_LOOP('',(#777));
#486=EDGE_LOOP('',(#778));
#487=AXIS2_PLACEMENT_3D('',#779,#780,#781);
#488=SURFACE_SIDE_STYLE('',(#782));
#489=EDGE_LOOP('',(#783));
#490=AXIS2_PLACEMENT_3D('',#784,#785,#786);
#491=SURFACE_SIDE_STYLE('',(#787));
#492=EDGE_LOOP('',(#788));
#493=AXIS2_PLACEMENT_3D('',#789,#790,#791);
#494=SURFACE_SIDE_STYLE('',(#792));
#495=EDGE_LOOP('',(#793));
#496=EDGE_LOOP('',(#794));
#497=AXIS2_PLACEMENT_3D('',#795,#796,#797);
#498=SURFACE_SIDE_STYLE('',(#798));
#499=EDGE_LOOP('',(#799));
#500=AXIS2_PLACEMENT_3D('',#800,#801,#802);
#501=SURFACE_SIDE_STYLE('',(#803));
#502=EDGE_LOOP('',(#804));
#503=AXIS2_PLACEMENT_3D('',#805,#806,#807);
#504=SURFACE_SIDE_STYLE('',(#808));
#505=EDGE_LOOP('',(#809));
#506=EDGE_LOOP('',(#810));
#507=AXIS2_PLACEMENT_3D('',#811,#812,#813);
#508=SURFACE_SIDE_STYLE('',(#814));
#509=EDGE_LOOP('',(#815));
#510=AXIS2_PLACEMENT_3D('',#816,#817,#818);
#511=SURFACE_SIDE_STYLE('',(#819));
#512=EDGE_LOOP('',(#820));
#513=AXIS2_PLACEMENT_3D('',#821,#822,#823);
#514=SURFACE_SIDE_STYLE('',(#824));
#515=EDGE_LOOP('',(#825));
#516=EDGE_LOOP('',(#826));
#517=AXIS2_PLACEMENT_3D('',#827,#828,#829);
#518=SURFACE_SIDE_STYLE('',(#830));
#519=EDGE_LOOP('',(#831));
#520=AXIS2_PLACEMENT_3D('',#832,#833,#834);
#521=SURFACE_SIDE_STYLE('',(#835));
#522=EDGE_LOOP('',(#836));
#523=AXIS2_PLACEMENT_3D('',#837,#838,#839);
#524=SURFACE_SIDE_STYLE('',(#840));
#525=EDGE_LOOP('',(#841,#842,#843,#844));
#526=AXIS2_PLACEMENT_3D('',#845,#846,#847);
#527=SURFACE_SIDE_STYLE('',(#848));
#528=EDGE_LOOP('',(#849,#850,#851,#852));
#529=AXIS2_PLACEMENT_3D('',#853,#854,#855);
#530=SURFACE_SIDE_STYLE('',(#856));
#531=EDGE_LOOP('',(#857,#858,#859,#860,#861,#862));
#532=AXIS2_PLACEMENT_3D('',#863,#864,#865);
#533=SURFACE_SIDE_STYLE('',(#866));
#534=EDGE_LOOP('',(#867));
#535=EDGE_LOOP('',(#868));
#536=AXIS2_PLACEMENT_3D('',#869,#870,#871);
#537=SURFACE_SIDE_STYLE('',(#872));
#538=EDGE_LOOP('',(#873));
#539=EDGE_LOOP('',(#874));
#540=AXIS2_PLACEMENT_3D('',#875,#876,#877);
#541=SURFACE_SIDE_STYLE('',(#878));
#542=EDGE_LOOP('',(#879));
#543=EDGE_LOOP('',(#880));
#544=AXIS2_PLACEMENT_3D('',#881,#882,#883);
#545=SURFACE_SIDE_STYLE('',(#884));
#546=EDGE_LOOP('',(#885));
#547=EDGE_LOOP('',(#886));
#548=AXIS2_PLACEMENT_3D('',#887,#888,#889);
#549=SURFACE_SIDE_STYLE('',(#890));
#550=EDGE_LOOP('',(#891));
#551=EDGE_LOOP('',(#892));
#552=AXIS2_PLACEMENT_3D('',#893,#894,#895);
#553=SURFACE_SIDE_STYLE('',(#896));
#554=EDGE_LOOP('',(#897));
#555=EDGE_LOOP('',(#898));
#556=AXIS2_PLACEMENT_3D('',#899,#900,#901);
#557=SURFACE_SIDE_STYLE('',(#902));
#558=EDGE_LOOP('',(#903));
#559=EDGE_LOOP('',(#904));
#560=AXIS2_PLACEMENT_3D('',#905,#906,#907);
#561=SURFACE_SIDE_STYLE('',(#908));
#562=EDGE_LOOP('',(#909));
#563=EDGE_LOOP('',(#910));
#564=AXIS2_PLACEMENT_3D('',#911,#912,#913);
#566=SURFACE_STYLE_FILL_AREA(#914);
#567=ORIENTED_EDGE('',*,*,#915,.T.);
#568=ORIENTED_EDGE('',*,*,#916,.F.);
#569=ORIENTED_EDGE('',*,*,#917,.F.);
#570=ORIENTED_EDGE('',*,*,#918,.T.);
#571=CARTESIAN_POINT('',(1.04083408558608E-014,-7.25,1.0));
#572=DIRECTION('',(-1.0,0.0,0.0));
#573=DIRECTION('',(0.0,0.0,1.0));
#574=SURFACE_STYLE_FILL_AREA(#919);
#575=ORIENTED_EDGE('',*,*,#920,.T.);
#576=ORIENTED_EDGE('',*,*,#921,.F.);
#577=ORIENTED_EDGE('',*,*,#922,.F.);
#578=ORIENTED_EDGE('',*,*,#923,.T.);
#579=CARTESIAN_POINT('',(-14.0,6.61193524935781,2.2));
#580=DIRECTION('',(1.0,0.0,0.0));
#581=DIRECTION('',(0.0,0.0,-1.0));
#582=SURFACE_STYLE_FILL_AREA(#924);
#583=ORIENTED_EDGE('',*,*,#925,.F.);
#584=ORIENTED_EDGE('',*,*,#926,.T.);
#585=ORIENTED_EDGE('',*,*,#927,.T.);
#586=ORIENTED_EDGE('',*,*,#928,.T.);
#587=CARTESIAN_POINT('',(-25.0,7.25,1.0));
#588=DIRECTION('',(1.0,0.0,0.0));
#589=DIRECTION('',(0.0,0.0,-1.0));
#590=SURFACE_STYLE_FILL_AREA(#929);
#591=ORIENTED_EDGE('',*,*,#930,.F.);
#592=ORIENTED_EDGE('',*,*,#931,.F.);
#593=ORIENTED_EDGE('',*,*,#932,.F.);
#594=ORIENTED_EDGE('',*,*,#933,.F.);
#595=ORIENTED_EDGE('',*,*,#934,.F.);
#596=ORIENTED_EDGE('',*,*,#935,.F.);
#597=ORIENTED_EDGE('',*,*,#936,.F.);
#598=ORIENTED_EDGE('',*,*,#937,.F.);
#599=ORIENTED_EDGE('',*,*,#938,.F.);
#600=ORIENTED_EDGE('',*,*,#928,.F.);
#601=ORIENTED_EDGE('',*,*,#939,.F.);
#602=ORIENTED_EDGE('',*,*,#915,.F.);
#603=CARTESIAN_POINT('',(-25.0,-7.25,0.0));
#604=DIRECTION('',(0.0,0.0,1.0));
#605=DIRECTION('',(1.0,0.0,0.0));
#606=SURFACE_STYLE_FILL_AREA(#940);
#607=ORIENTED_EDGE('',*,*,#941,.T.);
#608=ORIENTED_EDGE('',*,*,#942,.F.);
#609=ORIENTED_EDGE('',*,*,#916,.T.);
#610=ORIENTED_EDGE('',*,*,#939,.T.);
#611=ORIENTED_EDGE('',*,*,#927,.F.);
#612=ORIENTED_EDGE('',*,*,#943,.T.);
#613=CARTESIAN_POINT('',(1.04083408558608E-014,7.25,1.0));
#614=DIRECTION('',(0.0,-1.0,0.0));
#615=DIRECTION('',(0.0,0.0,-1.0));
#616=SURFACE_STYLE_FILL_AREA(#944);
#617=ORIENTED_EDGE('',*,*,#945,.T.);
#618=ORIENTED_EDGE('',*,*,#946,.T.);
#619=ORIENTED_EDGE('',*,*,#947,.T.);
#620=ORIENTED_EDGE('',*,*,#948,.T.);
#621=ORIENTED_EDGE('',*,*,#949,.T.);
#622=ORIENTED_EDGE('',*,*,#950,.T.);
#623=ORIENTED_EDGE('',*,*,#951,.T.);
#624=ORIENTED_EDGE('',*,*,#952,.T.);
#625=ORIENTED_EDGE('',*,*,#953,.F.);
#626=ORIENTED_EDGE('',*,*,#954,.F.);
#627=ORIENTED_EDGE('',*,*,#955,.F.);
#628=ORIENTED_EDGE('',*,*,#956,.F.);
#629=ORIENTED_EDGE('',*,*,#920,.F.);
#630=ORIENTED_EDGE('',*,*,#957,.F.);
#631=ORIENTED_EDGE('',*,*,#958,.F.);
#632=ORIENTED_EDGE('',*,*,#959,.F.);
#633=ORIENTED_EDGE('',*,*,#942,.T.);
#634=ORIENTED_EDGE('',*,*,#960,.T.);
#635=ORIENTED_EDGE('',*,*,#961,.T.);
#636=ORIENTED_EDGE('',*,*,#917,.T.);
#637=CARTESIAN_POINT('',(-25.0,-7.25,1.0));
#638=DIRECTION('',(0.0,0.0,1.0));
#639=DIRECTION('',(1.0,0.0,0.0));
#640=SURFACE_STYLE_FILL_AREA(#962);
#641=ORIENTED_EDGE('',*,*,#959,.T.);
#642=ORIENTED_EDGE('',*,*,#963,.F.);
#643=ORIENTED_EDGE('',*,*,#964,.F.);
#644=ORIENTED_EDGE('',*,*,#921,.T.);
#645=CARTESIAN_POINT('',(-14.0,1.1119352493578,2.2));
#646=DIRECTION('',(0.0,1.0,0.0));
#647=DIRECTION('',(0.0,0.0,1.0));
#648=SURFACE_STYLE_FILL_AREA(#965);
#649=ORIENTED_EDGE('',*,*,#958,.T.);
#650=ORIENTED_EDGE('',*,*,#966,.F.);
#651=ORIENTED_EDGE('',*,*,#967,.F.);
#652=ORIENTED_EDGE('',*,*,#963,.T.);
#653=CARTESIAN_POINT('',(-9.0,1.1119352493578,2.2));
#654=DIRECTION('',(-1.0,0.0,0.0));
#655=DIRECTION('',(0.0,0.0,1.0));
#656=SURFACE_STYLE_FILL_AREA(#968);
#657=ORIENTED_EDGE('',*,*,#957,.T.);
#658=ORIENTED_EDGE('',*,*,#923,.F.);
#659=ORIENTED_EDGE('',*,*,#969,.F.);
#660=ORIENTED_EDGE('',*,*,#966,.T.);
#661=CARTESIAN_POINT('',(-9.0,6.61193524935781,2.2));
#662=DIRECTION('',(0.0,-1.0,0.0));
#663=DIRECTION('',(0.0,0.0,-1.0));
#664=SURFACE_STYLE_FILL_AREA(#970);
#665=ORIENTED_EDGE('',*,*,#922,.T.);
#666=ORIENTED_EDGE('',*,*,#964,.T.);
#667=ORIENTED_EDGE('',*,*,#967,.T.);
#668=ORIENTED_EDGE('',*,*,#969,.T.);
#669=CARTESIAN_POINT('',(-14.0,1.1119352493578,2.2));
#670=DIRECTION('',(0.0,0.0,1.0));
#671=DIRECTION('',(1.0,0.0,0.0));
#672=SURFACE_STYLE_FILL_AREA(#971);
#673=ORIENTED_EDGE('',*,*,#953,.T.);
#674=ORIENTED_EDGE('',*,*,#972,.F.);
#675=ORIENTED_EDGE('',*,*,#973,.F.);
#676=ORIENTED_EDGE('',*,*,#974,.T.);
#677=CARTESIAN_POINT('',(-14.2241487745926,-0.492707302586474,1.69999999999989));
#678=DIRECTION('',(1.0,0.0,0.0));
#679=DIRECTION('',(0.0,0.0,-1.0));
#680=SURFACE_STYLE_FILL_AREA(#975);
#681=ORIENTED_EDGE('',*,*,#956,.T.);
#682=ORIENTED_EDGE('',*,*,#976,.F.);
#683=ORIENTED_EDGE('',*,*,#977,.F.);
#684=ORIENTED_EDGE('',*,*,#972,.T.);
#685=CARTESIAN_POINT('',(-14.2241487745926,-5.49270730258647,1.69999999999989));
#686=DIRECTION('',(0.0,1.0,0.0));
#687=DIRECTION('',(0.0,0.0,1.0));
#688=SURFACE_STYLE_FILL_AREA(#978);
#689=ORIENTED_EDGE('',*,*,#955,.T.);
#690=ORIENTED_EDGE('',*,*,#979,.F.);
#691=ORIENTED_EDGE('',*,*,#980,.F.);
#692=ORIENTED_EDGE('',*,*,#976,.T.);
#693=CARTESIAN_POINT('',(-9.22414877459258,-5.49270730258647,1.69999999999989));
#694=DIRECTION('',(-1.0,0.0,0.0));
#695=DIRECTION('',(0.0,0.0,1.0));
#696=SURFACE_STYLE_FILL_AREA(#981);
#697=ORIENTED_EDGE('',*,*,#954,.T.);
#698=ORIENTED_EDGE('',*,*,#974,.F.);
#699=ORIENTED_EDGE('',*,*,#982,.F.);
#700=ORIENTED_EDGE('',*,*,#979,.T.);
#701=CARTESIAN_POINT('',(-9.22414877459258,-0.492707302586474,1.69999999999989));
#702=DIRECTION('',(0.0,-1.0,0.0));
#703=DIRECTION('',(0.0,0.0,-1.0));
#704=SURFACE_STYLE_FILL_AREA(#983);
#705=ORIENTED_EDGE('',*,*,#973,.T.);
#706=ORIENTED_EDGE('',*,*,#977,.T.);
#707=ORIENTED_EDGE('',*,*,#980,.T.);
#708=ORIENTED_EDGE('',*,*,#982,.T.);
#709=CARTESIAN_POINT('',(-14.2241487745926,-5.49270730258647,1.69999999999989));
#710=DIRECTION('',(0.0,0.0,1.0));
#711=DIRECTION('',(1.0,0.0,0.0));
#712=SURFACE_STYLE_FILL_AREA(#984);
#713=ORIENTED_EDGE('',*,*,#952,.F.);
#714=ORIENTED_EDGE('',*,*,#985,.T.);
#715=CARTESIAN_POINT('',(-4.04,-1.27,-4.5));
#716=DIRECTION('',(0.0,0.0,1.0));
#717=DIRECTION('',(-1.0,0.0,0.0));
#718=SURFACE_STYLE_FILL_AREA(#986);
#719=ORIENTED_EDGE('',*,*,#985,.F.);
#720=CARTESIAN_POINT('',(-4.04,-1.27,2.5));
#721=DIRECTION('',(0.0,0.0,-1.0));
#722=DIRECTION('',(1.0,0.0,0.0));
#723=SURFACE_STYLE_FILL_AREA(#987);
#724=ORIENTED_EDGE('',*,*,#988,.T.);
#725=CARTESIAN_POINT('',(-4.04,-1.27,-4.5));
#726=DIRECTION('',(0.0,0.0,-1.0));
#727=DIRECTION('',(1.0,0.0,0.0));
#728=SURFACE_STYLE_FILL_AREA(#989);
#729=ORIENTED_EDGE('',*,*,#951,.F.);
#730=ORIENTED_EDGE('',*,*,#990,.T.);
#731=CARTESIAN_POINT('',(-4.04,1.27,-4.5));
#732=DIRECTION('',(0.0,0.0,1.0));
#733=DIRECTION('',(-1.0,0.0,0.0));
#734=SURFACE_STYLE_FILL_AREA(#991);
#735=ORIENTED_EDGE('',*,*,#990,.F.);
#736=CARTESIAN_POINT('',(-4.04,1.27,2.5));
#737=DIRECTION('',(0.0,0.0,-1.0));
#738=DIRECTION('',(1.0,0.0,0.0));
#739=SURFACE_STYLE_FILL_AREA(#992);
#740=ORIENTED_EDGE('',*,*,#993,.T.);
#741=CARTESIAN_POINT('',(-4.04,1.27,-4.5));
#742=DIRECTION('',(0.0,0.0,-1.0));
#743=DIRECTION('',(1.0,0.0,0.0));
#744=SURFACE_STYLE_FILL_AREA(#994);
#745=ORIENTED_EDGE('',*,*,#950,.F.);
#746=ORIENTED_EDGE('',*,*,#995,.T.);
#747=CARTESIAN_POINT('',(-4.04,-3.81,-4.5));
#748=DIRECTION('',(0.0,0.0,1.0));
#749=DIRECTION('',(-1.0,0.0,0.0));
#750=SURFACE_STYLE_FILL_AREA(#996);
#751=ORIENTED_EDGE('',*,*,#995,.F.);
#752=CARTESIAN_POINT('',(-4.04,-3.81,2.5));
#753=DIRECTION('',(0.0,0.0,-1.0));
#754=DIRECTION('',(1.0,0.0,0.0));
#755=SURFACE_STYLE_FILL_AREA(#997);
#756=ORIENTED_EDGE('',*,*,#998,.T.);
#757=CARTESIAN_POINT('',(-4.04,-3.81,-4.5));
#758=DIRECTION('',(0.0,0.0,-1.0));
#759=DIRECTION('',(1.0,0.0,0.0));
#760=SURFACE_STYLE_FILL_AREA(#999);
#761=ORIENTED_EDGE('',*,*,#949,.F.);
#762=ORIENTED_EDGE('',*,*,#1000,.T.);
#763=CARTESIAN_POINT('',(-4.04,3.81,-4.5));
#764=DIRECTION('',(0.0,0.0,1.0));
#765=DIRECTION('',(-1.0,0.0,0.0));
#766=SURFACE_STYLE_FILL_AREA(#1001);
#767=ORIENTED_EDGE('',*,*,#1000,.F.);
#768=CARTESIAN_POINT('',(-4.04,3.81,2.5));
#769=DIRECTION('',(0.0,0.0,-1.0));
#770=DIRECTION('',(1.0,0.0,0.0));
#771=SURFACE_STYLE_FILL_AREA(#1002);
#772=ORIENTED_EDGE('',*,*,#1003,.T.);
#773=CARTESIAN_POINT('',(-4.04,3.81,-4.5));
#774=DIRECTION('',(0.0,0.0,-1.0));
#775=DIRECTION('',(1.0,0.0,0.0));
#776=SURFACE_STYLE_FILL_AREA(#1004);
#777=ORIENTED_EDGE('',*,*,#948,.F.);
#778=ORIENTED_EDGE('',*,*,#1005,.T.);
#779=CARTESIAN_POINT('',(-1.5,-1.27,-4.5));
#780=DIRECTION('',(0.0,0.0,1.0));
#781=DIRECTION('',(-1.0,0.0,0.0));
#782=SURFACE_STYLE_FILL_AREA(#1006);
#783=ORIENTED_EDGE('',*,*,#1005,.F.);
#784=CARTESIAN_POINT('',(-1.5,-1.27,2.5));
#785=DIRECTION('',(0.0,0.0,-1.0));
#786=DIRECTION('',(1.0,0.0,0.0));
#787=SURFACE_STYLE_FILL_AREA(#1007);
#788=ORIENTED_EDGE('',*,*,#1008,.T.);
#789=CARTESIAN_POINT('',(-1.5,-1.27,-4.5));
#790=DIRECTION('',(0.0,0.0,-1.0));
#791=DIRECTION('',(1.0,0.0,0.0));
#792=SURFACE_STYLE_FILL_AREA(#1009);
#793=ORIENTED_EDGE('',*,*,#947,.F.);
#794=ORIENTED_EDGE('',*,*,#1010,.T.);
#795=CARTESIAN_POINT('',(-1.5,1.27,-4.5));
#796=DIRECTION('',(0.0,0.0,1.0));
#797=DIRECTION('',(-1.0,0.0,0.0));
#798=SURFACE_STYLE_FILL_AREA(#1011);
#799=ORIENTED_EDGE('',*,*,#1010,.F.);
#800=CARTESIAN_POINT('',(-1.5,1.27,2.5));
#801=DIRECTION('',(0.0,0.0,-1.0));
#802=DIRECTION('',(1.0,0.0,0.0));
#803=SURFACE_STYLE_FILL_AREA(#1012);
#804=ORIENTED_EDGE('',*,*,#1013,.T.);
#805=CARTESIAN_POINT('',(-1.5,1.27,-4.5));
#806=DIRECTION('',(0.0,0.0,-1.0));
#807=DIRECTION('',(1.0,0.0,0.0));
#808=SURFACE_STYLE_FILL_AREA(#1014);
#809=ORIENTED_EDGE('',*,*,#946,.F.);
#810=ORIENTED_EDGE('',*,*,#1015,.T.);
#811=CARTESIAN_POINT('',(-1.5,-3.81,-4.5));
#812=DIRECTION('',(0.0,0.0,1.0));
#813=DIRECTION('',(-1.0,0.0,0.0));
#814=SURFACE_STYLE_FILL_AREA(#1016);
#815=ORIENTED_EDGE('',*,*,#1015,.F.);
#816=CARTESIAN_POINT('',(-1.5,-3.81,2.5));
#817=DIRECTION('',(0.0,0.0,-1.0));
#818=DIRECTION('',(1.0,0.0,0.0));
#819=SURFACE_STYLE_FILL_AREA(#1017);
#820=ORIENTED_EDGE('',*,*,#1018,.T.);
#821=CARTESIAN_POINT('',(-1.5,-3.81,-4.5));
#822=DIRECTION('',(0.0,0.0,-1.0));
#823=DIRECTION('',(1.0,0.0,0.0));
#824=SURFACE_STYLE_FILL_AREA(#1019);
#825=ORIENTED_EDGE('',*,*,#945,.F.);
#826=ORIENTED_EDGE('',*,*,#1020,.T.);
#827=CARTESIAN_POINT('',(-1.5,3.81,-4.5));
#828=DIRECTION('',(0.0,0.0,1.0));
#829=DIRECTION('',(-1.0,0.0,0.0));
#830=SURFACE_STYLE_FILL_AREA(#1021);
#831=ORIENTED_EDGE('',*,*,#1020,.F.);
#832=CARTESIAN_POINT('',(-1.5,3.81,2.5));
#833=DIRECTION('',(0.0,0.0,-1.0));
#834=DIRECTION('',(1.0,0.0,0.0));
#835=SURFACE_STYLE_FILL_AREA(#1022);
#836=ORIENTED_EDGE('',*,*,#1023,.T.);
#837=CARTESIAN_POINT('',(-1.5,3.81,-4.5));
#838=DIRECTION('',(0.0,0.0,-1.0));
#839=DIRECTION('',(1.0,0.0,0.0));
#840=SURFACE_STYLE_FILL_AREA(#1024);
#841=ORIENTED_EDGE('',*,*,#960,.F.);
#842=ORIENTED_EDGE('',*,*,#941,.F.);
#843=ORIENTED_EDGE('',*,*,#1025,.T.);
#844=ORIENTED_EDGE('',*,*,#1026,.T.);
#845=CARTESIAN_POINT('',(-15.0,7.25,0.950000000021409));
#846=DIRECTION('',(-1.0,0.0,0.0));
#847=DIRECTION('',(0.0,0.0,-1.0));
#848=SURFACE_STYLE_FILL_AREA(#1027);
#849=ORIENTED_EDGE('',*,*,#926,.F.);
#850=ORIENTED_EDGE('',*,*,#1028,.F.);
#851=ORIENTED_EDGE('',*,*,#1025,.F.);
#852=ORIENTED_EDGE('',*,*,#943,.F.);
#853=CARTESIAN_POINT('',(-25.0,7.25,0.950000000021409));
#854=DIRECTION('',(0.0,0.0,-1.0));
#855=DIRECTION('',(1.0,0.0,0.0));
#856=SURFACE_STYLE_FILL_AREA(#1029);
#857=ORIENTED_EDGE('',*,*,#1026,.F.);
#858=ORIENTED_EDGE('',*,*,#1028,.T.);
#859=ORIENTED_EDGE('',*,*,#925,.T.);
#860=ORIENTED_EDGE('',*,*,#938,.T.);
#861=ORIENTED_EDGE('',*,*,#918,.F.);
#862=ORIENTED_EDGE('',*,*,#961,.F.);
#863=CARTESIAN_POINT('',(-25.0,-7.25,1.0));
#864=DIRECTION('',(0.0,1.0,0.0));
#865=DIRECTION('',(0.0,0.0,1.0));
#866=SURFACE_STYLE_FILL_AREA(#1030);
#867=ORIENTED_EDGE('',*,*,#1003,.F.);
#868=ORIENTED_EDGE('',*,*,#934,.T.);
#869=CARTESIAN_POINT('',(-4.04,3.81,-4.5));
#870=DIRECTION('',(0.0,0.0,1.0));
#871=DIRECTION('',(-1.0,0.0,0.0));
#872=SURFACE_STYLE_FILL_AREA(#1031);
#873=ORIENTED_EDGE('',*,*,#998,.F.);
#874=ORIENTED_EDGE('',*,*,#935,.T.);
#875=CARTESIAN_POINT('',(-4.04,-3.81,-4.5));
#876=DIRECTION('',(0.0,0.0,1.0));
#877=DIRECTION('',(-1.0,0.0,0.0));
#878=SURFACE_STYLE_FILL_AREA(#1032);
#879=ORIENTED_EDGE('',*,*,#1023,.F.);
#880=ORIENTED_EDGE('',*,*,#930,.T.);
#881=CARTESIAN_POINT('',(-1.5,3.81,-4.5));
#882=DIRECTION('',(0.0,0.0,1.0));
#883=DIRECTION('',(-1.0,0.0,0.0));
#884=SURFACE_STYLE_FILL_AREA(#1033);
#885=ORIENTED_EDGE('',*,*,#1013,.F.);
#886=ORIENTED_EDGE('',*,*,#932,.T.);
#887=CARTESIAN_POINT('',(-1.5,1.27,-4.5));
#888=DIRECTION('',(0.0,0.0,1.0));
#889=DIRECTION('',(-1.0,0.0,0.0));
#890=SURFACE_STYLE_FILL_AREA(#1034);
#891=ORIENTED_EDGE('',*,*,#993,.F.);
#892=ORIENTED_EDGE('',*,*,#936,.T.);
#893=CARTESIAN_POINT('',(-4.04,1.27,-4.5));
#894=DIRECTION('',(0.0,0.0,1.0));
#895=DIRECTION('',(-1.0,0.0,0.0));
#896=SURFACE_STYLE_FILL_AREA(#1035);
#897=ORIENTED_EDGE('',*,*,#1008,.F.);
#898=ORIENTED_EDGE('',*,*,#933,.T.);
#899=CARTESIAN_POINT('',(-1.5,-1.27,-4.5));
#900=DIRECTION('',(0.0,0.0,1.0));
#901=DIRECTION('',(-1.0,0.0,0.0));
#902=SURFACE_STYLE_FILL_AREA(#1036);
#903=ORIENTED_EDGE('',*,*,#988,.F.);
#904=ORIENTED_EDGE('',*,*,#937,.T.);
#905=CARTESIAN_POINT('',(-4.04,-1.27,-4.5));
#906=DIRECTION('',(0.0,0.0,1.0));
#907=DIRECTION('',(-1.0,0.0,0.0));
#908=SURFACE_STYLE_FILL_AREA(#1037);
#909=ORIENTED_EDGE('',*,*,#1018,.F.);
#910=ORIENTED_EDGE('',*,*,#931,.T.);
#911=CARTESIAN_POINT('',(-1.5,-3.81,-4.5));
#912=DIRECTION('',(0.0,0.0,1.0));
#913=DIRECTION('',(-1.0,0.0,0.0));
#914=FILL_AREA_STYLE('',(#1038));
#915=EDGE_CURVE('',#1039,#1040,#1041,.T.);
#916=EDGE_CURVE('',#1042,#1040,#1043,.T.);
#917=EDGE_CURVE('',#1044,#1042,#1045,.T.);
#918=EDGE_CURVE('',#1044,#1039,#1046,.T.);
#919=FILL_AREA_STYLE('',(#1047));
#920=EDGE_CURVE('',#1048,#1049,#1050,.T.);
#921=EDGE_CURVE('',#1051,#1049,#1052,.T.);
#922=EDGE_CURVE('',#1053,#1051,#1054,.T.);
#923=EDGE_CURVE('',#1053,#1048,#1055,.T.);
#924=FILL_AREA_STYLE('',(#1056));
#925=EDGE_CURVE('',#1057,#1058,#1059,.T.);
#926=EDGE_CURVE('',#1057,#1060,#1061,.T.);
#927=EDGE_CURVE('',#1060,#1062,#1063,.T.);
#928=EDGE_CURVE('',#1062,#1058,#1064,.T.);
#929=FILL_AREA_STYLE('',(#1065));
#930=EDGE_CURVE('',#1066,#1066,#1067,.F.);
#931=EDGE_CURVE('',#1068,#1068,#1069,.F.);
#932=EDGE_CURVE('',#1070,#1070,#1071,.F.);
#933=EDGE_CURVE('',#1072,#1072,#1073,.F.);
#934=EDGE_CURVE('',#1074,#1074,#1075,.F.);
#935=EDGE_CURVE('',#1076,#1076,#1077,.F.);
#936=EDGE_CURVE('',#1078,#1078,#1079,.F.);
#937=EDGE_CURVE('',#1080,#1080,#1081,.F.);
#938=EDGE_CURVE('',#1058,#1039,#1082,.T.);
#939=EDGE_CURVE('',#1040,#1062,#1083,.T.);
#940=FILL_AREA_STYLE('',(#1084));
#941=EDGE_CURVE('',#1085,#1086,#1087,.T.);
#942=EDGE_CURVE('',#1042,#1086,#1088,.T.);
#943=EDGE_CURVE('',#1060,#1085,#1089,.T.);
#944=FILL_AREA_STYLE('',(#1090));
#945=EDGE_CURVE('',#1091,#1091,#1092,.F.);
#946=EDGE_CURVE('',#1093,#1093,#1094,.F.);
#947=EDGE_CURVE('',#1095,#1095,#1096,.F.);
#948=EDGE_CURVE('',#1097,#1097,#1098,.F.);
#949=EDGE_CURVE('',#1099,#1099,#1100,.F.);
#950=EDGE_CURVE('',#1101,#1101,#1102,.F.);
#951=EDGE_CURVE('',#1103,#1103,#1104,.F.);
#952=EDGE_CURVE('',#1105,#1105,#1106,.F.);
#953=EDGE_CURVE('',#1107,#1108,#1109,.T.);
#954=EDGE_CURVE('',#1110,#1107,#1111,.T.);
#955=EDGE_CURVE('',#1112,#1110,#1113,.T.);
#956=EDGE_CURVE('',#1108,#1112,#1114,.T.);
#957=EDGE_CURVE('',#1115,#1048,#1116,.T.);
#958=EDGE_CURVE('',#1117,#1115,#1118,.T.);
#959=EDGE_CURVE('',#1049,#1117,#1119,.T.);
#960=EDGE_CURVE('',#1086,#1120,#1121,.T.);
#961=EDGE_CURVE('',#1120,#1044,#1122,.T.);
#962=FILL_AREA_STYLE('',(#1123));
#963=EDGE_CURVE('',#1124,#1117,#1125,.T.);
#964=EDGE_CURVE('',#1051,#1124,#1126,.T.);
#965=FILL_AREA_STYLE('',(#1127));
#966=EDGE_CURVE('',#1128,#1115,#1129,.T.);
#967=EDGE_CURVE('',#1124,#1128,#1130,.T.);
#968=FILL_AREA_STYLE('',(#1131));
#969=EDGE_CURVE('',#1128,#1053,#1132,.T.);
#970=FILL_AREA_STYLE('',(#1133));
#971=FILL_AREA_STYLE('',(#1134));
#972=EDGE_CURVE('',#1135,#1108,#1136,.T.);
#973=EDGE_CURVE('',#1137,#1135,#1138,.T.);
#974=EDGE_CURVE('',#1137,#1107,#1139,.T.);
#975=FILL_AREA_STYLE('',(#1140));
#976=EDGE_CURVE('',#1141,#1112,#1142,.T.);
#977=EDGE_CURVE('',#1135,#1141,#1143,.T.);
#978=FILL_AREA_STYLE('',(#1144));
#979=EDGE_CURVE('',#1145,#1110,#1146,.T.);
#980=EDGE_CURVE('',#1141,#1145,#1147,.T.);
#981=FILL_AREA_STYLE('',(#1148));
#982=EDGE_CURVE('',#1145,#1137,#1149,.T.);
#983=FILL_AREA_STYLE('',(#1150));
#984=FILL_AREA_STYLE('',(#1151));
#985=EDGE_CURVE('',#1152,#1152,#1153,.T.);
#986=FILL_AREA_STYLE('',(#1154));
#987=FILL_AREA_STYLE('',(#1155));
#988=EDGE_CURVE('',#1156,#1156,#1157,.T.);
#989=FILL_AREA_STYLE('',(#1158));
#990=EDGE_CURVE('',#1159,#1159,#1160,.T.);
#991=FILL_AREA_STYLE('',(#1161));
#992=FILL_AREA_STYLE('',(#1162));
#993=EDGE_CURVE('',#1163,#1163,#1164,.T.);
#994=FILL_AREA_STYLE('',(#1165));
#995=EDGE_CURVE('',#1166,#1166,#1167,.T.);
#996=FILL_AREA_STYLE('',(#1168));
#997=FILL_AREA_STYLE('',(#1169));
#998=EDGE_CURVE('',#1170,#1170,#1171,.T.);
#999=FILL_AREA_STYLE('',(#1172));
#1000=EDGE_CURVE('',#1173,#1173,#1174,.T.);
#1001=FILL_AREA_STYLE('',(#1175));
#1002=FILL_AREA_STYLE('',(#1176));
#1003=EDGE_CURVE('',#1177,#1177,#1178,.T.);
#1004=FILL_AREA_STYLE('',(#1179));
#1005=EDGE_CURVE('',#1180,#1180,#1181,.T.);
#1006=FILL_AREA_STYLE('',(#1182));
#1007=FILL_AREA_STYLE('',(#1183));
#1008=EDGE_CURVE('',#1184,#1184,#1185,.T.);
#1009=FILL_AREA_STYLE('',(#1186));
#1010=EDGE_CURVE('',#1187,#1187,#1188,.T.);
#1011=FILL_AREA_STYLE('',(#1189));
#1012=FILL_AREA_STYLE('',(#1190));
#1013=EDGE_CURVE('',#1191,#1191,#1192,.T.);
#1014=FILL_AREA_STYLE('',(#1193));
#1015=EDGE_CURVE('',#1194,#1194,#1195,.T.);
#1016=FILL_AREA_STYLE('',(#1196));
#1017=FILL_AREA_STYLE('',(#1197));
#1018=EDGE_CURVE('',#1198,#1198,#1199,.T.);
#1019=FILL_AREA_STYLE('',(#1200));
#1020=EDGE_CURVE('',#1201,#1201,#1202,.T.);
#1021=FILL_AREA_STYLE('',(#1203));
#1022=FILL_AREA_STYLE('',(#1204));
#1023=EDGE_CURVE('',#1205,#1205,#1206,.T.);
#1024=FILL_AREA_STYLE('',(#1207));
#1025=EDGE_CURVE('',#1085,#1208,#1209,.T.);
#1026=EDGE_CURVE('',#1208,#1120,#1210,.T.);
#1027=FILL_AREA_STYLE('',(#1211));
#1028=EDGE_CURVE('',#1208,#1057,#1212,.T.);
#1029=FILL_AREA_STYLE('',(#1213));
#1030=FILL_AREA_STYLE('',(#1214));
#1031=FILL_AREA_STYLE('',(#1215));
#1032=FILL_AREA_STYLE('',(#1216));
#1033=FILL_AREA_STYLE('',(#1217));
#1034=FILL_AREA_STYLE('',(#1218));
#1035=FILL_AREA_STYLE('',(#1219));
#1036=FILL_AREA_STYLE('',(#1220));
#1037=FILL_AREA_STYLE('',(#1221));
#1038=FILL_AREA_STYLE_COLOUR('',#1222);
#1039=VERTEX_POINT('',#1223);
#1040=VERTEX_POINT('',#1224);
#1041=LINE('',#1225,#1226);
#1042=VERTEX_POINT('',#1227);
#1043=LINE('',#1228,#1229);
#1044=VERTEX_POINT('',#1230);
#1045=LINE('',#1231,#1232);
#1046=LINE('',#1233,#1234);
#1047=FILL_AREA_STYLE_COLOUR('',#1235);
#1048=VERTEX_POINT('',#1236);
#1049=VERTEX_POINT('',#1237);
#1050=LINE('',#1238,#1239);
#1051=VERTEX_POINT('',#1240);
#1052=LINE('',#1241,#1242);
#1053=VERTEX_POINT('',#1243);
#1054=LINE('',#1244,#1245);
#1055=LINE('',#1246,#1247);
#1056=FILL_AREA_STYLE_COLOUR('',#1248);
#1057=VERTEX_POINT('',#1249);
#1058=VERTEX_POINT('',#1250);
#1059=LINE('',#1251,#1252);
#1060=VERTEX_POINT('',#1253);
#1061=LINE('',#1254,#1255);
#1062=VERTEX_POINT('',#1256);
#1063=LINE('',#1257,#1258);
#1064=LINE('',#1259,#1260);
#1065=FILL_AREA_STYLE_COLOUR('',#1261);
#1066=VERTEX_POINT('',#1262);
#1067=CIRCLE('',#1263,0.4);
#1068=VERTEX_POINT('',#1264);
#1069=CIRCLE('',#1265,0.4);
#1070=VERTEX_POINT('',#1266);
#1071=CIRCLE('',#1267,0.4);
#1072=VERTEX_POINT('',#1268);
#1073=CIRCLE('',#1269,0.4);
#1074=VERTEX_POINT('',#1270);
#1075=CIRCLE('',#1271,0.4);
#1076=VERTEX_POINT('',#1272);
#1077=CIRCLE('',#1273,0.4);
#1078=VERTEX_POINT('',#1274);
#1079=CIRCLE('',#1275,0.4);
#1080=VERTEX_POINT('',#1276);
#1081=CIRCLE('',#1277,0.4);
#1082=LINE('',#1278,#1279);
#1083=LINE('',#1280,#1281);
#1084=FILL_AREA_STYLE_COLOUR('',#1282);
#1085=VERTEX_POINT('',#1283);
#1086=VERTEX_POINT('',#1284);
#1087=LINE('',#1285,#1286);
#1088=LINE('',#1287,#1288);
#1089=LINE('',#1289,#1290);
#1090=FILL_AREA_STYLE_COLOUR('',#1291);
#1091=VERTEX_POINT('',#1292);
#1092=CIRCLE('',#1293,0.4);
#1093=VERTEX_POINT('',#1294);
#1094=CIRCLE('',#1295,0.4);
#1095=VERTEX_POINT('',#1296);
#1096=CIRCLE('',#1297,0.4);
#1097=VERTEX_POINT('',#1298);
#1098=CIRCLE('',#1299,0.4);
#1099=VERTEX_POINT('',#1300);
#1100=CIRCLE('',#1301,0.4);
#1101=VERTEX_POINT('',#1302);
#1102=CIRCLE('',#1303,0.4);
#1103=VERTEX_POINT('',#1304);
#1104=CIRCLE('',#1305,0.4);
#1105=VERTEX_POINT('',#1306);
#1106=CIRCLE('',#1307,0.4);
#1107=VERTEX_POINT('',#1308);
#1108=VERTEX_POINT('',#1309);
#1109=LINE('',#1310,#1311);
#1110=VERTEX_POINT('',#1312);
#1111=LINE('',#1313,#1314);
#1112=VERTEX_POINT('',#1315);
#1113=LINE('',#1316,#1317);
#1114=LINE('',#1318,#1319);
#1115=VERTEX_POINT('',#1320);
#1116=LINE('',#1321,#1322);
#1117=VERTEX_POINT('',#1323);
#1118=LINE('',#1324,#1325);
#1119=LINE('',#1326,#1327);
#1120=VERTEX_POINT('',#1328);
#1121=LINE('',#1329,#1330);
#1122=LINE('',#1331,#1332);
#1123=FILL_AREA_STYLE_COLOUR('',#1333);
#1124=VERTEX_POINT('',#1334);
#1125=LINE('',#1335,#1336);
#1126=LINE('',#1337,#1338);
#1127=FILL_AREA_STYLE_COLOUR('',#1339);
#1128=VERTEX_POINT('',#1340);
#1129=LINE('',#1341,#1342);
#1130=LINE('',#1343,#1344);
#1131=FILL_AREA_STYLE_COLOUR('',#1345);
#1132=LINE('',#1346,#1347);
#1133=FILL_AREA_STYLE_COLOUR('',#1348);
#1134=FILL_AREA_STYLE_COLOUR('',#1349);
#1135=VERTEX_POINT('',#1350);
#1136=LINE('',#1351,#1352);
#1137=VERTEX_POINT('',#1353);
#1138=LINE('',#1354,#1355);
#1139=LINE('',#1356,#1357);
#1140=FILL_AREA_STYLE_COLOUR('',#1358);
#1141=VERTEX_POINT('',#1359);
#1142=LINE('',#1360,#1361);
#1143=LINE('',#1362,#1363);
#1144=FILL_AREA_STYLE_COLOUR('',#1364);
#1145=VERTEX_POINT('',#1365);
#1146=LINE('',#1366,#1367);
#1147=LINE('',#1368,#1369);
#1148=FILL_AREA_STYLE_COLOUR('',#1370);
#1149=LINE('',#1371,#1372);
#1150=FILL_AREA_STYLE_COLOUR('',#1373);
#1151=FILL_AREA_STYLE_COLOUR('',#1374);
#1152=VERTEX_POINT('',#1375);
#1153=CIRCLE('',#1376,0.4);
#1154=FILL_AREA_STYLE_COLOUR('',#1377);
#1155=FILL_AREA_STYLE_COLOUR('',#1378);
#1156=VERTEX_POINT('',#1379);
#1157=CIRCLE('',#1380,0.4);
#1158=FILL_AREA_STYLE_COLOUR('',#1381);
#1159=VERTEX_POINT('',#1382);
#1160=CIRCLE('',#1383,0.4);
#1161=FILL_AREA_STYLE_COLOUR('',#1384);
#1162=FILL_AREA_STYLE_COLOUR('',#1385);
#1163=VERTEX_POINT('',#1386);
#1164=CIRCLE('',#1387,0.4);
#1165=FILL_AREA_STYLE_COLOUR('',#1388);
#1166=VERTEX_POINT('',#1389);
#1167=CIRCLE('',#1390,0.4);
#1168=FILL_AREA_STYLE_COLOUR('',#1391);
#1169=FILL_AREA_STYLE_COLOUR('',#1392);
#1170=VERTEX_POINT('',#1393);
#1171=CIRCLE('',#1394,0.4);
#1172=FILL_AREA_STYLE_COLOUR('',#1395);
#1173=VERTEX_POINT('',#1396);
#1174=CIRCLE('',#1397,0.4);
#1175=FILL_AREA_STYLE_COLOUR('',#1398);
#1176=FILL_AREA_STYLE_COLOUR('',#1399);
#1177=VERTEX_POINT('',#1400);
#1178=CIRCLE('',#1401,0.4);
#1179=FILL_AREA_STYLE_COLOUR('',#1402);
#1180=VERTEX_POINT('',#1403);
#1181=CIRCLE('',#1404,0.4);
#1182=FILL_AREA_STYLE_COLOUR('',#1405);
#1183=FILL_AREA_STYLE_COLOUR('',#1406);
#1184=VERTEX_POINT('',#1407);
#1185=CIRCLE('',#1408,0.4);
#1186=FILL_AREA_STYLE_COLOUR('',#1409);
#1187=VERTEX_POINT('',#1410);
#1188=CIRCLE('',#1411,0.4);
#1189=FILL_AREA_STYLE_COLOUR('',#1412);
#1190=FILL_AREA_STYLE_COLOUR('',#1413);
#1191=VERTEX_POINT('',#1414);
#1192=CIRCLE('',#1415,0.4);
#1193=FILL_AREA_STYLE_COLOUR('',#1416);
#1194=VERTEX_POINT('',#1417);
#1195=CIRCLE('',#1418,0.4);
#1196=FILL_AREA_STYLE_COLOUR('',#1419);
#1197=FILL_AREA_STYLE_COLOUR('',#1420);
#1198=VERTEX_POINT('',#1421);
#1199=CIRCLE('',#1422,0.4);
#1200=FILL_AREA_STYLE_COLOUR('',#1423);
#1201=VERTEX_POINT('',#1424);
#1202=CIRCLE('',#1425,0.4);
#1203=FILL_AREA_STYLE_COLOUR('',#1426);
#1204=FILL_AREA_STYLE_COLOUR('',#1427);
#1205=VERTEX_POINT('',#1428);
#1206=CIRCLE('',#1429,0.4);
#1207=FILL_AREA_STYLE_COLOUR('',#1430);
#1208=VERTEX_POINT('',#1431);
#1209=LINE('',#1432,#1433);
#1210=LINE('',#1434,#1435);
#1211=FILL_AREA_STYLE_COLOUR('',#1436);
#1212=LINE('',#1437,#1438);
#1213=FILL_AREA_STYLE_COLOUR('',#1439);
#1214=FILL_AREA_STYLE_COLOUR('',#1440);
#1215=FILL_AREA_STYLE_COLOUR('',#1441);
#1216=FILL_AREA_STYLE_COLOUR('',#1442);
#1217=FILL_AREA_STYLE_COLOUR('',#1443);
#1218=FILL_AREA_STYLE_COLOUR('',#1444);
#1219=FILL_AREA_STYLE_COLOUR('',#1445);
#1220=FILL_AREA_STYLE_COLOUR('',#1446);
#1221=FILL_AREA_STYLE_COLOUR('',#1447);
#1222=COLOUR_RGB('',0.400000005960464,0.400000005960464,0.400000005960464);
#1223=CARTESIAN_POINT('',(1.04083408558608E-014,-7.25,0.0));
#1224=CARTESIAN_POINT('',(1.04083408558608E-014,7.25,0.0));
#1225=CARTESIAN_POINT('',(1.04083408558608E-014,-7.25,0.0));
#1226=VECTOR('',#1448,1.0);
#1227=CARTESIAN_POINT('',(1.04083408558608E-014,7.25,1.0));
#1228=CARTESIAN_POINT('',(1.04083408558608E-014,7.25,1.0));
#1229=VECTOR('',#1449,1.0);
#1230=CARTESIAN_POINT('',(1.04083408558608E-014,-7.25,1.0));
#1231=CARTESIAN_POINT('',(1.04083408558608E-014,-7.25,1.0));
#1232=VECTOR('',#1450,1.0);
#1233=CARTESIAN_POINT('',(1.04083408558608E-014,-7.25,1.0));
#1234=VECTOR('',#1451,1.0);
#1235=COLOUR_RGB('',0.400000005960464,0.400000005960464,0.400000005960464);
#1236=CARTESIAN_POINT('',(-14.0,6.61193524935781,1.0));
#1237=CARTESIAN_POINT('',(-14.0,1.1119352493578,1.0));
#1238=CARTESIAN_POINT('',(-14.0,6.61193524935781,1.0));
#1239=VECTOR('',#1452,1.0);
#1240=CARTESIAN_POINT('',(-14.0,1.1119352493578,2.2));
#1241=CARTESIAN_POINT('',(-14.0,1.1119352493578,2.2));
#1242=VECTOR('',#1453,1.0);
#1243=CARTESIAN_POINT('',(-14.0,6.61193524935781,2.2));
#1244=CARTESIAN_POINT('',(-14.0,6.61193524935781,2.2));
#1245=VECTOR('',#1454,1.0);
#1246=CARTESIAN_POINT('',(-14.0,6.61193524935781,2.2));
#1247=VECTOR('',#1455,1.0);
#1248=COLOUR_RGB('',0.400000005960464,0.400000005960464,0.400000005960464);
#1249=CARTESIAN_POINT('',(-25.0,-7.25,0.950000000021409));
#1250=CARTESIAN_POINT('',(-25.0,-7.25,0.0));
#1251=CARTESIAN_POINT('',(-25.0,-7.25,1.0));
#1252=VECTOR('',#1456,1.0);
#1253=CARTESIAN_POINT('',(-25.0,7.25,0.950000000021409));
#1254=CARTESIAN_POINT('',(-25.0,-7.25,0.950000000021409));
#1255=VECTOR('',#1457,1.0);
#1256=CARTESIAN_POINT('',(-25.0,7.25,0.0));
#1257=CARTESIAN_POINT('',(-25.0,7.25,1.0));
#1258=VECTOR('',#1458,1.0);
#1259=CARTESIAN_POINT('',(-25.0,7.25,0.0));
#1260=VECTOR('',#1459,1.0);
#1261=COLOUR_RGB('',0.400000005960464,0.400000005960464,0.400000005960464);
#1262=CARTESIAN_POINT('',(-1.1,3.81,0.0));
#1263=AXIS2_PLACEMENT_3D('',#1460,#1461,#1462);
#1264=CARTESIAN_POINT('',(-1.1,-3.81,0.0));
#1265=AXIS2_PLACEMENT_3D('',#1463,#1464,#1465);
#1266=CARTESIAN_POINT('',(-1.1,1.27,0.0));
#1267=AXIS2_PLACEMENT_3D('',#1466,#1467,#1468);
#1268=CARTESIAN_POINT('',(-1.1,-1.27,0.0));
#1269=AXIS2_PLACEMENT_3D('',#1469,#1470,#1471);
#1270=CARTESIAN_POINT('',(-3.64,3.81,0.0));
#1271=AXIS2_PLACEMENT_3D('',#1472,#1473,#1474);
#1272=CARTESIAN_POINT('',(-3.64,-3.81,0.0));
#1273=AXIS2_PLACEMENT_3D('',#1475,#1476,#1477);
#1274=CARTESIAN_POINT('',(-3.64,1.27,0.0));
#1275=AXIS2_PLACEMENT_3D('',#1478,#1479,#1480);
#1276=CARTESIAN_POINT('',(-3.64,-1.27,0.0));
#1277=AXIS2_PLACEMENT_3D('',#1481,#1482,#1483);
#1278=CARTESIAN_POINT('',(-25.0,-7.25,0.0));
#1279=VECTOR('',#1484,1.0);
#1280=CARTESIAN_POINT('',(1.04083408558608E-014,7.25,0.0));
#1281=VECTOR('',#1485,1.0);
#1282=COLOUR_RGB('',0.400000005960464,0.400000005960464,0.400000005960464);
#1283=CARTESIAN_POINT('',(-15.0,7.25,0.950000000021409));
#1284=CARTESIAN_POINT('',(-15.0,7.25,1.00000000002141));
#1285=CARTESIAN_POINT('',(-15.0,7.25,0.950000000021409));
#1286=VECTOR('',#1486,1.0);
#1287=CARTESIAN_POINT('',(1.04083408558608E-014,7.25,1.0));
#1288=VECTOR('',#1487,1.0);
#1289=CARTESIAN_POINT('',(-25.0,7.25,0.950000000021409));
#1290=VECTOR('',#1488,1.0);
#1291=COLOUR_RGB('',0.400000005960464,0.400000005960464,0.400000005960464);
#1292=CARTESIAN_POINT('',(-1.1,3.81,1.0));
#1293=AXIS2_PLACEMENT_3D('',#1489,#1490,#1491);
#1294=CARTESIAN_POINT('',(-1.1,-3.81,1.0));
#1295=AXIS2_PLACEMENT_3D('',#1492,#1493,#1494);
#1296=CARTESIAN_POINT('',(-1.1,1.27,1.0));
#1297=AXIS2_PLACEMENT_3D('',#1495,#1496,#1497);
#1298=CARTESIAN_POINT('',(-1.1,-1.27,1.0));
#1299=AXIS2_PLACEMENT_3D('',#1498,#1499,#1500);
#1300=CARTESIAN_POINT('',(-3.64,3.81,1.0));
#1301=AXIS2_PLACEMENT_3D('',#1501,#1502,#1503);
#1302=CARTESIAN_POINT('',(-3.64,-3.81,1.0));
#1303=AXIS2_PLACEMENT_3D('',#1504,#1505,#1506);
#1304=CARTESIAN_POINT('',(-3.64,1.27,1.0));
#1305=AXIS2_PLACEMENT_3D('',#1507,#1508,#1509);
#1306=CARTESIAN_POINT('',(-3.64,-1.27,1.0));
#1307=AXIS2_PLACEMENT_3D('',#1510,#1511,#1512);
#1308=CARTESIAN_POINT('',(-14.2241487745926,-0.492707302586474,0.99999999999989));
#1309=CARTESIAN_POINT('',(-14.2241487745926,-5.49270730258647,0.99999999999989));
#1310=CARTESIAN_POINT('',(-14.2241487745926,-0.492707302586474,0.99999999999989));
#1311=VECTOR('',#1513,1.0);
#1312=CARTESIAN_POINT('',(-9.22414877459258,-0.492707302586474,0.99999999999989));
#1313=CARTESIAN_POINT('',(-9.22414877459258,-0.492707302586474,0.99999999999989));
#1314=VECTOR('',#1514,1.0);
#1315=CARTESIAN_POINT('',(-9.22414877459258,-5.49270730258647,0.99999999999989));
#1316=CARTESIAN_POINT('',(-9.22414877459258,-5.49270730258647,0.99999999999989));
#1317=VECTOR('',#1515,1.0);
#1318=CARTESIAN_POINT('',(-14.2241487745926,-5.49270730258647,0.99999999999989));
#1319=VECTOR('',#1516,1.0);
#1320=CARTESIAN_POINT('',(-9.0,6.61193524935781,1.0));
#1321=CARTESIAN_POINT('',(-9.0,6.61193524935781,1.0));
#1322=VECTOR('',#1517,1.0);
#1323=CARTESIAN_POINT('',(-9.0,1.1119352493578,1.0));
#1324=CARTESIAN_POINT('',(-9.0,1.1119352493578,1.0));
#1325=VECTOR('',#1518,1.0);
#1326=CARTESIAN_POINT('',(-14.0,1.1119352493578,1.0));
#1327=VECTOR('',#1519,1.0);
#1328=CARTESIAN_POINT('',(-15.0,-7.25,1.00000000002141));
#1329=CARTESIAN_POINT('',(-15.0,7.25,1.00000000002141));
#1330=VECTOR('',#1520,1.0);
#1331=CARTESIAN_POINT('',(-25.0,-7.25,1.0));
#1332=VECTOR('',#1521,1.0);
#1333=COLOUR_RGB('',0.400000005960464,0.400000005960464,0.400000005960464);
#1334=CARTESIAN_POINT('',(-9.0,1.1119352493578,2.2));
#1335=CARTESIAN_POINT('',(-9.0,1.1119352493578,2.2));
#1336=VECTOR('',#1522,1.0);
#1337=CARTESIAN_POINT('',(-14.0,1.1119352493578,2.2));
#1338=VECTOR('',#1523,1.0);
#1339=COLOUR_RGB('',0.400000005960464,0.400000005960464,0.400000005960464);
#1340=CARTESIAN_POINT('',(-9.0,6.61193524935781,2.2));
#1341=CARTESIAN_POINT('',(-9.0,6.61193524935781,2.2));
#1342=VECTOR('',#1524,1.0);
#1343=CARTESIAN_POINT('',(-9.0,1.1119352493578,2.2));
#1344=VECTOR('',#1525,1.0);
#1345=COLOUR_RGB('',0.400000005960464,0.400000005960464,0.400000005960464);
#1346=CARTESIAN_POINT('',(-9.0,6.61193524935781,2.2));
#1347=VECTOR('',#1526,1.0);
#1348=COLOUR_RGB('',0.400000005960464,0.400000005960464,0.400000005960464);
#1349=COLOUR_RGB('',0.400000005960464,0.400000005960464,0.400000005960464);
#1350=CARTESIAN_POINT('',(-14.2241487745926,-5.49270730258647,1.69999999999989));
#1351=CARTESIAN_POINT('',(-14.2241487745926,-5.49270730258647,1.69999999999989));
#1352=VECTOR('',#1527,1.0);
#1353=CARTESIAN_POINT('',(-14.2241487745926,-0.492707302586474,1.69999999999989));
#1354=CARTESIAN_POINT('',(-14.2241487745926,-0.492707302586474,1.69999999999989));
#1355=VECTOR('',#1528,1.0);
#1356=CARTESIAN_POINT('',(-14.2241487745926,-0.492707302586474,1.69999999999989));
#1357=VECTOR('',#1529,1.0);
#1358=COLOUR_RGB('',0.400000005960464,0.400000005960464,0.400000005960464);
#1359=CARTESIAN_POINT('',(-9.22414877459258,-5.49270730258647,1.69999999999989));
#1360=CARTESIAN_POINT('',(-9.22414877459258,-5.49270730258647,1.69999999999989));
#1361=VECTOR('',#1530,1.0);
#1362=CARTESIAN_POINT('',(-14.2241487745926,-5.49270730258647,1.69999999999989));
#1363=VECTOR('',#1531,1.0);
#1364=COLOUR_RGB('',0.400000005960464,0.400000005960464,0.400000005960464);
#1365=CARTESIAN_POINT('',(-9.22414877459258,-0.492707302586474,1.69999999999989));
#1366=CARTESIAN_POINT('',(-9.22414877459258,-0.492707302586474,1.69999999999989));
#1367=VECTOR('',#1532,1.0);
#1368=CARTESIAN_POINT('',(-9.22414877459258,-5.49270730258647,1.69999999999989));
#1369=VECTOR('',#1533,1.0);
#1370=COLOUR_RGB('',0.400000005960464,0.400000005960464,0.400000005960464);
#1371=CARTESIAN_POINT('',(-9.22414877459258,-0.492707302586474,1.69999999999989));
#1372=VECTOR('',#1534,1.0);
#1373=COLOUR_RGB('',0.400000005960464,0.400000005960464,0.400000005960464);
#1374=COLOUR_RGB('',1.0,0.752941191196442,0.0);
#1375=CARTESIAN_POINT('',(-3.64,-1.27,2.5));
#1376=AXIS2_PLACEMENT_3D('',#1535,#1536,#1537);
#1377=COLOUR_RGB('',0.400000005960464,0.400000005960464,0.400000005960464);
#1378=COLOUR_RGB('',0.400000005960464,0.400000005960464,0.400000005960464);
#1379=CARTESIAN_POINT('',(-3.64,-1.27,-4.5));
#1380=AXIS2_PLACEMENT_3D('',#1538,#1539,#1540);
#1381=COLOUR_RGB('',1.0,0.752941191196442,0.0);
#1382=CARTESIAN_POINT('',(-3.64,1.27,2.5));
#1383=AXIS2_PLACEMENT_3D('',#1541,#1542,#1543);
#1384=COLOUR_RGB('',0.400000005960464,0.400000005960464,0.400000005960464);
#1385=COLOUR_RGB('',0.400000005960464,0.400000005960464,0.400000005960464);
#1386=CARTESIAN_POINT('',(-3.64,1.27,-4.5));
#1387=AXIS2_PLACEMENT_3D('',#1544,#1545,#1546);
#1388=COLOUR_RGB('',1.0,0.752941191196442,0.0);
#1389=CARTESIAN_POINT('',(-3.64,-3.81,2.5));
#1390=AXIS2_PLACEMENT_3D('',#1547,#1548,#1549);
#1391=COLOUR_RGB('',0.400000005960464,0.400000005960464,0.400000005960464);
#1392=COLOUR_RGB('',0.400000005960464,0.400000005960464,0.400000005960464);
#1393=CARTESIAN_POINT('',(-3.64,-3.81,-4.5));
#1394=AXIS2_PLACEMENT_3D('',#1550,#1551,#1552);
#1395=COLOUR_RGB('',1.0,0.752941191196442,0.0);
#1396=CARTESIAN_POINT('',(-3.64,3.81,2.5));
#1397=AXIS2_PLACEMENT_3D('',#1553,#1554,#1555);
#1398=COLOUR_RGB('',0.400000005960464,0.400000005960464,0.400000005960464);
#1399=COLOUR_RGB('',0.400000005960464,0.400000005960464,0.400000005960464);
#1400=CARTESIAN_POINT('',(-3.64,3.81,-4.5));
#1401=AXIS2_PLACEMENT_3D('',#1556,#1557,#1558);
#1402=COLOUR_RGB('',1.0,0.752941191196442,0.0);
#1403=CARTESIAN_POINT('',(-1.1,-1.27,2.5));
#1404=AXIS2_PLACEMENT_3D('',#1559,#1560,#1561);
#1405=COLOUR_RGB('',0.400000005960464,0.400000005960464,0.400000005960464);
#1406=COLOUR_RGB('',0.400000005960464,0.400000005960464,0.400000005960464);
#1407=CARTESIAN_POINT('',(-1.1,-1.27,-4.5));
#1408=AXIS2_PLACEMENT_3D('',#1562,#1563,#1564);
#1409=COLOUR_RGB('',1.0,0.752941191196442,0.0);
#1410=CARTESIAN_POINT('',(-1.1,1.27,2.5));
#1411=AXIS2_PLACEMENT_3D('',#1565,#1566,#1567);
#1412=COLOUR_RGB('',0.400000005960464,0.400000005960464,0.400000005960464);
#1413=COLOUR_RGB('',0.400000005960464,0.400000005960464,0.400000005960464);
#1414=CARTESIAN_POINT('',(-1.1,1.27,-4.5));
#1415=AXIS2_PLACEMENT_3D('',#1568,#1569,#1570);
#1416=COLOUR_RGB('',1.0,0.752941191196442,0.0);
#1417=CARTESIAN_POINT('',(-1.1,-3.81,2.5));
#1418=AXIS2_PLACEMENT_3D('',#1571,#1572,#1573);
#1419=COLOUR_RGB('',0.400000005960464,0.400000005960464,0.400000005960464);
#1420=COLOUR_RGB('',0.400000005960464,0.400000005960464,0.400000005960464);
#1421=CARTESIAN_POINT('',(-1.1,-3.81,-4.5));
#1422=AXIS2_PLACEMENT_3D('',#1574,#1575,#1576);
#1423=COLOUR_RGB('',1.0,0.752941191196442,0.0);
#1424=CARTESIAN_POINT('',(-1.1,3.81,2.5));
#1425=AXIS2_PLACEMENT_3D('',#1577,#1578,#1579);
#1426=COLOUR_RGB('',0.400000005960464,0.400000005960464,0.400000005960464);
#1427=COLOUR_RGB('',0.400000005960464,0.400000005960464,0.400000005960464);
#1428=CARTESIAN_POINT('',(-1.1,3.81,-4.5));
#1429=AXIS2_PLACEMENT_3D('',#1580,#1581,#1582);
#1430=COLOUR_RGB('',0.400000005960464,0.400000005960464,0.400000005960464);
#1431=CARTESIAN_POINT('',(-15.0,-7.25,0.950000000021409));
#1432=CARTESIAN_POINT('',(-15.0,7.25,0.950000000021409));
#1433=VECTOR('',#1583,1.0);
#1434=CARTESIAN_POINT('',(-15.0,-7.25,0.950000000021409));
#1435=VECTOR('',#1584,1.0);
#1436=COLOUR_RGB('',1.0,0.752941191196442,0.0);
#1437=CARTESIAN_POINT('',(-15.0,-7.25,0.950000000021409));
#1438=VECTOR('',#1585,1.0);
#1439=COLOUR_RGB('',0.400000005960464,0.400000005960464,0.400000005960464);
#1440=COLOUR_RGB('',1.0,0.752941191196442,0.0);
#1441=COLOUR_RGB('',1.0,0.752941191196442,0.0);
#1442=COLOUR_RGB('',1.0,0.752941191196442,0.0);
#1443=COLOUR_RGB('',1.0,0.752941191196442,0.0);
#1444=COLOUR_RGB('',1.0,0.752941191196442,0.0);
#1445=COLOUR_RGB('',1.0,0.752941191196442,0.0);
#1446=COLOUR_RGB('',1.0,0.752941191196442,0.0);
#1447=COLOUR_RGB('',1.0,0.752941191196442,0.0);
#1448=DIRECTION('',(0.0,1.0,0.0));
#1449=DIRECTION('',(0.0,0.0,-1.0));
#1450=DIRECTION('',(0.0,1.0,0.0));
#1451=DIRECTION('',(0.0,0.0,-1.0));
#1452=DIRECTION('',(0.0,-1.0,0.0));
#1453=DIRECTION('',(0.0,0.0,-1.0));
#1454=DIRECTION('',(0.0,-1.0,0.0));
#1455=DIRECTION('',(0.0,0.0,-1.0));
#1456=DIRECTION('',(0.0,0.0,-1.0));
#1457=DIRECTION('',(0.0,1.0,0.0));
#1458=DIRECTION('',(0.0,0.0,-1.0));
#1459=DIRECTION('',(0.0,-1.0,0.0));
#1460=CARTESIAN_POINT('',(-1.5,3.81,0.0));
#1461=DIRECTION('',(0.0,0.0,1.0));
#1462=DIRECTION('',(1.0,0.0,0.0));
#1463=CARTESIAN_POINT('',(-1.5,-3.81,0.0));
#1464=DIRECTION('',(0.0,0.0,1.0));
#1465=DIRECTION('',(1.0,0.0,0.0));
#1466=CARTESIAN_POINT('',(-1.5,1.27,0.0));
#1467=DIRECTION('',(0.0,0.0,1.0));
#1468=DIRECTION('',(1.0,0.0,0.0));
#1469=CARTESIAN_POINT('',(-1.5,-1.27,0.0));
#1470=DIRECTION('',(0.0,0.0,1.0));
#1471=DIRECTION('',(1.0,0.0,0.0));
#1472=CARTESIAN_POINT('',(-4.04,3.81,0.0));
#1473=DIRECTION('',(0.0,0.0,1.0));
#1474=DIRECTION('',(1.0,0.0,0.0));
#1475=CARTESIAN_POINT('',(-4.04,-3.81,0.0));
#1476=DIRECTION('',(0.0,0.0,1.0));
#1477=DIRECTION('',(1.0,0.0,0.0));
#1478=CARTESIAN_POINT('',(-4.04,1.27,0.0));
#1479=DIRECTION('',(0.0,0.0,1.0));
#1480=DIRECTION('',(1.0,0.0,0.0));
#1481=CARTESIAN_POINT('',(-4.04,-1.27,0.0));
#1482=DIRECTION('',(0.0,0.0,1.0));
#1483=DIRECTION('',(1.0,0.0,0.0));
#1484=DIRECTION('',(1.0,0.0,0.0));
#1485=DIRECTION('',(-1.0,0.0,0.0));
#1486=DIRECTION('',(0.0,0.0,1.0));
#1487=DIRECTION('',(-1.0,0.0,0.0));
#1488=DIRECTION('',(1.0,0.0,0.0));
#1489=CARTESIAN_POINT('',(-1.5,3.81,1.0));
#1490=DIRECTION('',(0.0,0.0,1.0));
#1491=DIRECTION('',(1.0,0.0,0.0));
#1492=CARTESIAN_POINT('',(-1.5,-3.81,1.0));
#1493=DIRECTION('',(0.0,0.0,1.0));
#1494=DIRECTION('',(1.0,0.0,0.0));
#1495=CARTESIAN_POINT('',(-1.5,1.27,1.0));
#1496=DIRECTION('',(0.0,0.0,1.0));
#1497=DIRECTION('',(1.0,0.0,0.0));
#1498=CARTESIAN_POINT('',(-1.5,-1.27,1.0));
#1499=DIRECTION('',(0.0,0.0,1.0));
#1500=DIRECTION('',(1.0,0.0,0.0));
#1501=CARTESIAN_POINT('',(-4.04,3.81,1.0));
#1502=DIRECTION('',(0.0,0.0,1.0));
#1503=DIRECTION('',(1.0,0.0,0.0));
#1504=CARTESIAN_POINT('',(-4.04,-3.81,1.0));
#1505=DIRECTION('',(0.0,0.0,1.0));
#1506=DIRECTION('',(1.0,0.0,0.0));
#1507=CARTESIAN_POINT('',(-4.04,1.27,1.0));
#1508=DIRECTION('',(0.0,0.0,1.0));
#1509=DIRECTION('',(1.0,0.0,0.0));
#1510=CARTESIAN_POINT('',(-4.04,-1.27,1.0));
#1511=DIRECTION('',(0.0,0.0,1.0));
#1512=DIRECTION('',(1.0,0.0,0.0));
#1513=DIRECTION('',(0.0,-1.0,0.0));
#1514=DIRECTION('',(-1.0,0.0,0.0));
#1515=DIRECTION('',(0.0,1.0,0.0));
#1516=DIRECTION('',(1.0,0.0,0.0));
#1517=DIRECTION('',(-1.0,0.0,0.0));
#1518=DIRECTION('',(0.0,1.0,0.0));
#1519=DIRECTION('',(1.0,0.0,0.0));
#1520=DIRECTION('',(0.0,-1.0,0.0));
#1521=DIRECTION('',(1.0,0.0,0.0));
#1522=DIRECTION('',(0.0,0.0,-1.0));
#1523=DIRECTION('',(1.0,0.0,0.0));
#1524=DIRECTION('',(0.0,0.0,-1.0));
#1525=DIRECTION('',(0.0,1.0,0.0));
#1526=DIRECTION('',(-1.0,0.0,0.0));
#1527=DIRECTION('',(0.0,0.0,-1.0));
#1528=DIRECTION('',(0.0,-1.0,0.0));
#1529=DIRECTION('',(0.0,0.0,-1.0));
#1530=DIRECTION('',(0.0,0.0,-1.0));
#1531=DIRECTION('',(1.0,0.0,0.0));
#1532=DIRECTION('',(0.0,0.0,-1.0));
#1533=DIRECTION('',(0.0,1.0,0.0));
#1534=DIRECTION('',(-1.0,0.0,0.0));
#1535=CARTESIAN_POINT('',(-4.04,-1.27,2.5));
#1536=DIRECTION('',(0.0,0.0,-1.0));
#1537=DIRECTION('',(1.0,0.0,0.0));
#1538=CARTESIAN_POINT('',(-4.04,-1.27,-4.5));
#1539=DIRECTION('',(0.0,0.0,-1.0));
#1540=DIRECTION('',(1.0,0.0,0.0));
#1541=CARTESIAN_POINT('',(-4.04,1.27,2.5));
#1542=DIRECTION('',(0.0,0.0,-1.0));
#1543=DIRECTION('',(1.0,0.0,0.0));
#1544=CARTESIAN_POINT('',(-4.04,1.27,-4.5));
#1545=DIRECTION('',(0.0,0.0,-1.0));
#1546=DIRECTION('',(1.0,0.0,0.0));
#1547=CARTESIAN_POINT('',(-4.04,-3.81,2.5));
#1548=DIRECTION('',(0.0,0.0,-1.0));
#1549=DIRECTION('',(1.0,0.0,0.0));
#1550=CARTESIAN_POINT('',(-4.04,-3.81,-4.5));
#1551=DIRECTION('',(0.0,0.0,-1.0));
#1552=DIRECTION('',(1.0,0.0,0.0));
#1553=CARTESIAN_POINT('',(-4.04,3.81,2.5));
#1554=DIRECTION('',(0.0,0.0,-1.0));
#1555=DIRECTION('',(1.0,0.0,0.0));
#1556=CARTESIAN_POINT('',(-4.04,3.81,-4.5));
#1557=DIRECTION('',(0.0,0.0,-1.0));
#1558=DIRECTION('',(1.0,0.0,0.0));
#1559=CARTESIAN_POINT('',(-1.5,-1.27,2.5));
#1560=DIRECTION('',(0.0,0.0,-1.0));
#1561=DIRECTION('',(1.0,0.0,0.0));
#1562=CARTESIAN_POINT('',(-1.5,-1.27,-4.5));
#1563=DIRECTION('',(0.0,0.0,-1.0));
#1564=DIRECTION('',(1.0,0.0,0.0));
#1565=CARTESIAN_POINT('',(-1.5,1.27,2.5));
#1566=DIRECTION('',(0.0,0.0,-1.0));
#1567=DIRECTION('',(1.0,0.0,0.0));
#1568=CARTESIAN_POINT('',(-1.5,1.27,-4.5));
#1569=DIRECTION('',(0.0,0.0,-1.0));
#1570=DIRECTION('',(1.0,0.0,0.0));
#1571=CARTESIAN_POINT('',(-1.5,-3.81,2.5));
#1572=DIRECTION('',(0.0,0.0,-1.0));
#1573=DIRECTION('',(1.0,0.0,0.0));
#1574=CARTESIAN_POINT('',(-1.5,-3.81,-4.5));
#1575=DIRECTION('',(0.0,0.0,-1.0));
#1576=DIRECTION('',(1.0,0.0,0.0));
#1577=CARTESIAN_POINT('',(-1.5,3.81,2.5));
#1578=DIRECTION('',(0.0,0.0,-1.0));
#1579=DIRECTION('',(1.0,0.0,0.0));
#1580=CARTESIAN_POINT('',(-1.5,3.81,-4.5));
#1581=DIRECTION('',(0.0,0.0,-1.0));
#1582=DIRECTION('',(1.0,0.0,0.0));
#1583=DIRECTION('',(0.0,-1.0,0.0));
#1584=DIRECTION('',(0.0,0.0,1.0));
#1585=DIRECTION('',(-1.0,0.0,0.0));
ENDSEC;
END-ISO-10303-21;
