#VRML V2.0 utf8
# Adafruit UDA1334A I2S stereo DAC breakout (3678).
# Built FROM the U2 footprint in MSX_PicoVerse_2350_1.4.kicad_pcb - pin positions are the actual pads.
# Mounted COMPONENT SIDE DOWN: the jack, the two 47 uF cans and the DAC face
# the carrier board and sit in the 6.00 mm standoff; the bare face of the
# module PCB is the outermost surface. Overall height 7.60 mm.
# Use offset (0 0 0) and rotate (0 0 0) on this footprint.
# 1 unit = 2.54 mm.
Transform {
  children [
    # UDA1334A breakout PCB 38.10 x 25.40 x 1.60
    Transform {
      translation 1.03150 -0.21654 2.67717
      children [
        Shape {
        appearance Appearance {
          material Material {
            diffuseColor 0.09 0.20 0.45
            specularColor 0.25 0.25 0.30
            shininess 0.20
            ambientIntensity 0.30
          }
        }
          geometry Box { size 15.00000 10.00000 0.62992 }
        }
      ]
    }
    # header pin 1
    Transform {
      translation 5.53937 -4.25197 0.92520
      children [
        Shape {
        appearance Appearance {
          material Material {
            diffuseColor 0.85 0.70 0.25
            specularColor 0.35 0.29 0.10
            shininess 0.30
            ambientIntensity 0.30
          }
        }
          geometry Box { size 0.25197 0.25197 4.37008 }
        }
      ]
    }
    # header pin 2
    Transform {
      translation 4.52362 -4.25197 0.92520
      children [
        Shape {
        appearance Appearance {
          material Material {
            diffuseColor 0.85 0.70 0.25
            specularColor 0.35 0.29 0.10
            shininess 0.30
            ambientIntensity 0.30
          }
        }
          geometry Box { size 0.25197 0.25197 4.37008 }
        }
      ]
    }
    # header pin 3
    Transform {
      translation 3.52362 -4.25197 0.92520
      children [
        Shape {
        appearance Appearance {
          material Material {
            diffuseColor 0.85 0.70 0.25
            specularColor 0.35 0.29 0.10
            shininess 0.30
            ambientIntensity 0.30
          }
        }
          geometry Box { size 0.25197 0.25197 4.37008 }
        }
      ]
    }
    # header pin 4
    Transform {
      translation 2.52362 -4.25197 0.92520
      children [
        Shape {
        appearance Appearance {
          material Material {
            diffuseColor 0.85 0.70 0.25
            specularColor 0.35 0.29 0.10
            shininess 0.30
            ambientIntensity 0.30
          }
        }
          geometry Box { size 0.25197 0.25197 4.37008 }
        }
      ]
    }
    # header pin 5
    Transform {
      translation 1.52362 -4.25197 0.92520
      children [
        Shape {
        appearance Appearance {
          material Material {
            diffuseColor 0.85 0.70 0.25
            specularColor 0.35 0.29 0.10
            shininess 0.30
            ambientIntensity 0.30
          }
        }
          geometry Box { size 0.25197 0.25197 4.37008 }
        }
      ]
    }
    # header pin 6
    Transform {
      translation 0.52362 -4.25197 0.92520
      children [
        Shape {
        appearance Appearance {
          material Material {
            diffuseColor 0.85 0.70 0.25
            specularColor 0.35 0.29 0.10
            shininess 0.30
            ambientIntensity 0.30
          }
        }
          geometry Box { size 0.25197 0.25197 4.37008 }
        }
      ]
    }
    # header pin 7
    Transform {
      translation -0.47638 -4.25197 0.92520
      children [
        Shape {
        appearance Appearance {
          material Material {
            diffuseColor 0.85 0.70 0.25
            specularColor 0.35 0.29 0.10
            shininess 0.30
            ambientIntensity 0.30
          }
        }
          geometry Box { size 0.25197 0.25197 4.37008 }
        }
      ]
    }
    # header pin 8
    Transform {
      translation -1.47638 -4.25197 0.92520
      children [
        Shape {
        appearance Appearance {
          material Material {
            diffuseColor 0.85 0.70 0.25
            specularColor 0.35 0.29 0.10
            shininess 0.30
            ambientIntensity 0.30
          }
        }
          geometry Box { size 0.25197 0.25197 4.37008 }
        }
      ]
    }
    # header pin 9
    Transform {
      translation -2.47638 -4.25197 0.92520
      children [
        Shape {
        appearance Appearance {
          material Material {
            diffuseColor 0.85 0.70 0.25
            specularColor 0.35 0.29 0.10
            shininess 0.30
            ambientIntensity 0.30
          }
        }
          geometry Box { size 0.25197 0.25197 4.37008 }
        }
      ]
    }
    # header pin 10
    Transform {
      translation 4.42126 3.82677 0.92520
      children [
        Shape {
        appearance Appearance {
          material Material {
            diffuseColor 0.85 0.70 0.25
            specularColor 0.35 0.29 0.10
            shininess 0.30
            ambientIntensity 0.30
          }
        }
          geometry Box { size 0.25197 0.25197 4.37008 }
        }
      ]
    }
    # header pin 11
    Transform {
      translation 3.44882 3.82677 0.92520
      children [
        Shape {
        appearance Appearance {
          material Material {
            diffuseColor 0.85 0.70 0.25
            specularColor 0.35 0.29 0.10
            shininess 0.30
            ambientIntensity 0.30
          }
        }
          geometry Box { size 0.25197 0.25197 4.37008 }
        }
      ]
    }
    # header pin 12
    Transform {
      translation 2.44882 3.82677 0.92520
      children [
        Shape {
        appearance Appearance {
          material Material {
            diffuseColor 0.85 0.70 0.25
            specularColor 0.35 0.29 0.10
            shininess 0.30
            ambientIntensity 0.30
          }
        }
          geometry Box { size 0.25197 0.25197 4.37008 }
        }
      ]
    }
    # header pin 13
    Transform {
      translation 1.44882 3.82677 0.92520
      children [
        Shape {
        appearance Appearance {
          material Material {
            diffuseColor 0.85 0.70 0.25
            specularColor 0.35 0.29 0.10
            shininess 0.30
            ambientIntensity 0.30
          }
        }
          geometry Box { size 0.25197 0.25197 4.37008 }
        }
      ]
    }
    # header pin 14
    Transform {
      translation 0.44882 3.82677 0.92520
      children [
        Shape {
        appearance Appearance {
          material Material {
            diffuseColor 0.85 0.70 0.25
            specularColor 0.35 0.29 0.10
            shininess 0.30
            ambientIntensity 0.30
          }
        }
          geometry Box { size 0.25197 0.25197 4.37008 }
        }
      ]
    }
    # header pin 15
    Transform {
      translation -0.55118 3.82677 0.92520
      children [
        Shape {
        appearance Appearance {
          material Material {
            diffuseColor 0.85 0.70 0.25
            specularColor 0.35 0.29 0.10
            shininess 0.30
            ambientIntensity 0.30
          }
        }
          geometry Box { size 0.25197 0.25197 4.37008 }
        }
      ]
    }
    # UDA1334ATS TSSOP-16
    Transform {
      translation 4.91929 -0.37598 2.14567
      children [
        Shape {
        appearance Appearance {
          material Material {
            diffuseColor 0.13 0.13 0.14
            specularColor 0.16 0.16 0.17
            shininess 0.15
            ambientIntensity 0.30
          }
        }
          geometry Box { size 2.08268 2.31890 0.43307 }
        }
      ]
    }
    # 3.5 mm stereo jack body
    Transform {
      translation -3.60039 -0.05709 1.37795
      children [
        Shape {
        appearance Appearance {
          material Material {
            diffuseColor 0.06 0.06 0.07
            specularColor 0.10 0.10 0.11
            shininess 0.10
            ambientIntensity 0.30
          }
        }
          geometry Box { size 5.73622 2.81496 1.96850 }
        }
      ]
    }
    # jack barrel - overhangs the module edge
    Transform {
      translation -7.08465 -0.05906 1.37795
      children [
        Shape {
        appearance Appearance {
          material Material {
            diffuseColor 0.06 0.06 0.07
            specularColor 0.10 0.10 0.11
            shininess 0.10
            ambientIntensity 0.30
          }
        }
          geometry Box { size 1.23228 1.33858 1.96850 }
        }
      ]
    }
    # 47 uF output cap
    Shape {
      appearance Appearance {
        material Material {
          diffuseColor 0.72 0.72 0.75
          specularColor 0.40 0.40 0.42
          shininess 0.35
          ambientIntensity 0.30
        }
      }
      geometry IndexedFaceSet {
        solid TRUE
        creaseAngle 1.0
        coord Coordinate { point [ 1.53543 -1.91339 2.36220, 1.53543 -1.91339 0.23622, 1.48244 -2.24795 2.36220, 1.48244 -2.24795 0.23622, 1.32866 -2.54977 2.36220, 1.32866 -2.54977 0.23622, 1.08914 -2.78929 2.36220, 1.08914 -2.78929 0.23622, 0.78732 -2.94307 2.36220, 0.78732 -2.94307 0.23622, 0.45276 -2.99606 2.36220, 0.45276 -2.99606 0.23622, 0.11819 -2.94307 2.36220, 0.11819 -2.94307 0.23622, -0.18363 -2.78929 2.36220, -0.18363 -2.78929 0.23622, -0.42315 -2.54977 2.36220, -0.42315 -2.54977 0.23622, -0.57693 -2.24795 2.36220, -0.57693 -2.24795 0.23622, -0.62992 -1.91339 2.36220, -0.62992 -1.91339 0.23622, -0.57693 -1.57882 2.36220, -0.57693 -1.57882 0.23622, -0.42315 -1.27700 2.36220, -0.42315 -1.27700 0.23622, -0.18363 -1.03748 2.36220, -0.18363 -1.03748 0.23622, 0.11819 -0.88370 2.36220, 0.11819 -0.88370 0.23622, 0.45276 -0.83071 2.36220, 0.45276 -0.83071 0.23622, 0.78732 -0.88370 2.36220, 0.78732 -0.88370 0.23622, 1.08914 -1.03748 2.36220, 1.08914 -1.03748 0.23622, 1.32866 -1.27700 2.36220, 1.32866 -1.27700 0.23622, 1.48244 -1.57882 2.36220, 1.48244 -1.57882 0.23622 ] }
        coordIndex [ 0 1 3 2 -1, 2 3 5 4 -1, 4 5 7 6 -1, 6 7 9 8 -1, 8 9 11 10 -1, 10 11 13 12 -1, 12 13 15 14 -1, 14 15 17 16 -1, 16 17 19 18 -1, 18 19 21 20 -1, 20 21 23 22 -1, 22 23 25 24 -1, 24 25 27 26 -1, 26 27 29 28 -1, 28 29 31 30 -1, 30 31 33 32 -1, 32 33 35 34 -1, 34 35 37 36 -1, 36 37 39 38 -1, 38 39 1 0 -1, 39 37 35 33 31 29 27 25 23 21 19 17 15 13 11 9 7 5 3 1 -1, 0 2 4 6 8 10 12 14 16 18 20 22 24 26 28 30 32 34 36 38 -1 ]
      }
    }
    # 47 uF output cap
    Shape {
      appearance Appearance {
        material Material {
          diffuseColor 0.72 0.72 0.75
          specularColor 0.40 0.40 0.42
          shininess 0.35
          ambientIntensity 0.30
        }
      }
      geometry IndexedFaceSet {
        solid TRUE
        creaseAngle 1.0
        coord Coordinate { point [ 1.53543 1.76772 2.36220, 1.53543 1.76772 0.23622, 1.48244 1.43315 2.36220, 1.48244 1.43315 0.23622, 1.32866 1.13133 2.36220, 1.32866 1.13133 0.23622, 1.08914 0.89181 2.36220, 1.08914 0.89181 0.23622, 0.78732 0.73803 2.36220, 0.78732 0.73803 0.23622, 0.45276 0.68504 2.36220, 0.45276 0.68504 0.23622, 0.11819 0.73803 2.36220, 0.11819 0.73803 0.23622, -0.18363 0.89181 2.36220, -0.18363 0.89181 0.23622, -0.42315 1.13133 2.36220, -0.42315 1.13133 0.23622, -0.57693 1.43315 2.36220, -0.57693 1.43315 0.23622, -0.62992 1.76772 2.36220, -0.62992 1.76772 0.23622, -0.57693 2.10228 2.36220, -0.57693 2.10228 0.23622, -0.42315 2.40410 2.36220, -0.42315 2.40410 0.23622, -0.18363 2.64362 2.36220, -0.18363 2.64362 0.23622, 0.11819 2.79740 2.36220, 0.11819 2.79740 0.23622, 0.45276 2.85039 2.36220, 0.45276 2.85039 0.23622, 0.78732 2.79740 2.36220, 0.78732 2.79740 0.23622, 1.08914 2.64362 2.36220, 1.08914 2.64362 0.23622, 1.32866 2.40410 2.36220, 1.32866 2.40410 0.23622, 1.48244 2.10228 2.36220, 1.48244 2.10228 0.23622 ] }
        coordIndex [ 0 1 3 2 -1, 2 3 5 4 -1, 4 5 7 6 -1, 6 7 9 8 -1, 8 9 11 10 -1, 10 11 13 12 -1, 12 13 15 14 -1, 14 15 17 16 -1, 16 17 19 18 -1, 18 19 21 20 -1, 20 21 23 22 -1, 22 23 25 24 -1, 24 25 27 26 -1, 26 27 29 28 -1, 28 29 31 30 -1, 30 31 33 32 -1, 32 33 35 34 -1, 34 35 37 36 -1, 36 37 39 38 -1, 38 39 1 0 -1, 39 37 35 33 31 29 27 25 23 21 19 17 15 13 11 9 7 5 3 1 -1, 0 2 4 6 8 10 12 14 16 18 20 22 24 26 28 30 32 34 36 38 -1 ]
      }
    }
  ]
}
